999
dxfrw 0.5.13
0
SECTION
2
HEADER
9
$ACADVER
1
AC1021
9
$HANDSEED
5
20000
9
$DWGCODEPAGE
3
ANSI_1252
9
$INSBASE
10
0
20
0
30
0
9
$EXTMIN
10
-17
20
-11
30
0
9
$EXTMAX
10
23.4851636338
20
25.0876464252
30
0
9
$LIMMIN
10
0
20
0
9
$LIMMAX
10
12
20
9
9
$ORTHOMODE
70
0
9
$LTSCALE
40
1
9
$TEXTSTYLE
7
Standard
9
$CLAYER
8
test
9
$DIMASZ
40
0.18
9
$DIMLFAC
40
1
9
$DIMSCALE
40
1
9
$DIMEXO
40
0.0625
9
$DIMEXE
40
0.18
9
$DIMTXT
40
0.18
9
$DIMTSZ
40
0
9
$DIMAUNIT
70
0
9
$DIMADEC
70
0
9
$DIMLUNIT
70
2
9
$DIMSTYLE
2
Standard
9
$DIMGAP
40
0.09
9
$DIMTIH
70
1
9
$LUNITS
70
2
9
$LUPREC
70
4
9
$AUNITS
70
0
9
$AUPREC
70
0
9
$SPLINESEGS
70
8
9
$GRIDMODE
70
1
9
$SNAPSTYLE
70
0
9
$PINSBASE
10
0
20
0
30
0
9
$PLIMMIN
10
-0.250000240296
20
-0.249999996245
9
$PLIMMAX
10
10.7499995194
20
8.24999976346
9
$INSUNITS
70
5
9
$PSVPSCALE
40
0
0
ENDSEC
0
SECTION
2
CLASSES
0
ENDSEC
0
SECTION
2
TABLES
0
TABLE
2
VPORT
5
8
330
0
100
AcDbSymbolTable
70
1
0
VPORT
5
31
330
2
100
AcDbSymbolTableRecord
100
AcDbViewportTableRecord
2
*ACTIVE
70
0
10
0
20
0
11
1
21
1
12
-5.98619244276
22
3.04809304241
13
0
23
0
14
10
24
10
15
10
25
10
16
0
26
0
36
1
17
0
27
0
37
0
40
2.06026552624
41
1.69609856263
42
50
43
0
44
0
50
0
51
0
71
0
72
100
73
1
74
3
75
0
76
1
77
0
78
0
281
0
65
1
110
0
120
0
130
0
111
1
121
0
131
0
112
0
122
1
132
0
79
0
146
0
348
10020
60
7
61
5
292
1
282
1
141
0
142
0
63
250
421
3358443
0
ENDTAB
0
TABLE
2
LTYPE
5
5
330
0
100
AcDbSymbolTable
70
4
0
LTYPE
5
14
330
5
100
AcDbSymbolTableRecord
100
AcDbLinetypeTableRecord
2
ByBlock
70
0
3

72
65
73
0
40
0
0
LTYPE
5
15
330
5
100
AcDbSymbolTableRecord
100
AcDbLinetypeTableRecord
2
ByLayer
70
0
3

72
65
73
0
40
0
0
LTYPE
5
16
330
5
100
AcDbSymbolTableRecord
100
AcDbLinetypeTableRecord
2
Continuous
70
0
3
Solid line
72
65
73
0
40
0
0
LTYPE
5
32
330
5
100
AcDbSymbolTableRecord
100
AcDbLinetypeTableRecord
2
DOT
70
0
3
Dot . . . . . . . . . . . . . . . . . . . . . .
72
65
73
2
40
6.35
49
0
74
0
49
-6.35
74
0
0
LTYPE
5
33
330
5
100
AcDbSymbolTableRecord
100
AcDbLinetypeTableRecord
2
DOT2
70
0
3
Dot (.5x) .....................................
72
65
73
2
40
3.175
49
0
74
0
49
-3.175
74
0
0
LTYPE
5
34
330
5
100
AcDbSymbolTableRecord
100
AcDbLinetypeTableRecord
2
DOTX2
70
0
3
Dot (2x) .  .  .  .  .  .  .  .  .  .  .  .  .
72
65
73
2
40
12.7
49
0
74
0
49
-12.7
74
0
0
LTYPE
5
35
330
5
100
AcDbSymbolTableRecord
100
AcDbLinetypeTableRecord
2
DASHED
70
0
3
Dot . . . . . . . . . . . . . . . . . . . . . .
72
65
73
2
40
19.05
49
12.7
74
0
49
-6.35
74
0
0
LTYPE
5
36
330
5
100
AcDbSymbolTableRecord
100
AcDbLinetypeTableRecord
2
DASHED2
70
0
3
Dashed (.5x) _ _ _ _ _ _ _ _ _ _ _ _ _ _ _ _ _
72
65
73
2
40
9.525
49
6.35
74
0
49
-3.175
74
0
0
LTYPE
5
37
330
5
100
AcDbSymbolTableRecord
100
AcDbLinetypeTableRecord
2
DASHEDX2
70
0
3
Dashed (2x) ____  ____  ____  ____  ____  ___
72
65
73
2
40
38.1
49
25.4
74
0
49
-12.7
74
0
0
LTYPE
5
38
330
5
100
AcDbSymbolTableRecord
100
AcDbLinetypeTableRecord
2
DASHDOT
70
0
3
Dash dot __ . __ . __ . __ . __ . __ . __ . __
72
65
73
4
40
25.4
49
12.7
74
0
49
-6.35
74
0
49
0
74
0
49
-6.35
74
0
0
LTYPE
5
39
330
5
100
AcDbSymbolTableRecord
100
AcDbLinetypeTableRecord
2
DASHDOT2
70
0
3
Dash dot (.5x) _._._._._._._._._._._._._._._.
72
65
73
4
40
12.7
49
6.35
74
0
49
-3.175
74
0
49
0
74
0
49
-3.175
74
0
0
LTYPE
5
3A
330
5
100
AcDbSymbolTableRecord
100
AcDbLinetypeTableRecord
2
DASHDOTX2
70
0
3
Dash dot (2x) ____  .  ____  .  ____  .  ___
72
65
73
4
40
50.8
49
25.4
74
0
49
-12.7
74
0
49
0
74
0
49
-12.7
74
0
0
LTYPE
5
3B
330
5
100
AcDbSymbolTableRecord
100
AcDbLinetypeTableRecord
2
DIVIDE
70
0
3
Divide ____ . . ____ . . ____ . . ____ . . ____
72
65
73
6
40
31.75
49
12.7
74
0
49
-6.35
74
0
49
0
74
0
49
-6.35
74
0
49
0
74
0
49
-6.35
74
0
0
LTYPE
5
3C
330
5
100
AcDbSymbolTableRecord
100
AcDbLinetypeTableRecord
2
DIVIDE2
70
0
3
Divide (.5x) __..__..__..__..__..__..__..__.._
72
65
73
6
40
15.875
49
6.35
74
0
49
-3.175
74
0
49
0
74
0
49
-3.175
74
0
49
0
74
0
49
-3.175
74
0
0
LTYPE
5
3D
330
5
100
AcDbSymbolTableRecord
100
AcDbLinetypeTableRecord
2
DIVIDEX2
70
0
3
Divide (2x) ________  .  .  ________  .  .  _
72
65
73
6
40
63.5
49
25.4
74
0
49
-12.7
74
0
49
0
74
0
49
-12.7
74
0
49
0
74
0
49
-12.7
74
0
0
LTYPE
5
3E
330
5
100
AcDbSymbolTableRecord
100
AcDbLinetypeTableRecord
2
BORDER
70
0
3
Border __ __ . __ __ . __ __ . __ __ . __ __ .
72
65
73
6
40
44.45
49
12.7
74
0
49
-6.35
74
0
49
12.7
74
0
49
-6.35
74
0
49
0
74
0
49
-6.35
74
0
0
LTYPE
5
3F
330
5
100
AcDbSymbolTableRecord
100
AcDbLinetypeTableRecord
2
BORDER2
70
0
3
Border (.5x) __.__.__.__.__.__.__.__.__.__.__.
72
65
73
6
40
22.225
49
6.35
74
0
49
-3.175
74
0
49
6.35
74
0
49
-3.175
74
0
49
0
74
0
49
-3.175
74
0
0
LTYPE
5
40
330
5
100
AcDbSymbolTableRecord
100
AcDbLinetypeTableRecord
2
BORDERX2
70
0
3
Border (2x) ____  ____  .  ____  ____  .  ___
72
65
73
6
40
88.9
49
25.4
74
0
49
-12.7
74
0
49
25.4
74
0
49
-12.7
74
0
49
0
74
0
49
-12.7
74
0
0
LTYPE
5
41
330
5
100
AcDbSymbolTableRecord
100
AcDbLinetypeTableRecord
2
CENTER
70
0
3
Center ____ _ ____ _ ____ _ ____ _ ____ _ ____
72
65
73
4
40
50.8
49
31.75
74
0
49
-6.35
74
0
49
6.35
74
0
49
-6.35
74
0
0
LTYPE
5
42
330
5
100
AcDbSymbolTableRecord
100
AcDbLinetypeTableRecord
2
CENTER2
70
0
3
Center (.5x) ___ _ ___ _ ___ _ ___ _ ___ _ ___
72
65
73
4
40
28.575
49
19.05
74
0
49
-3.175
74
0
49
3.175
74
0
49
-3.175
74
0
0
LTYPE
5
43
330
5
100
AcDbSymbolTableRecord
100
AcDbLinetypeTableRecord
2
CENTERX2
70
0
3
Center (2x) ________  __  ________  __  _____
72
65
73
4
40
101.6
49
63.5
74
0
49
-12.7
74
0
49
12.7
74
0
49
-12.7
74
0
0
ENDTAB
0
TABLE
2
LAYER
5
2
330
0
100
AcDbSymbolTable
70
1
0
LAYER
5
10
330
2
100
AcDbSymbolTableRecord
100
AcDbLayerTableRecord
2
0
70
0
62
7
6
CONTINUOUS
370
-3
390
F
0
LAYER
5
44
330
2
100
AcDbSymbolTableRecord
100
AcDbLayerTableRecord
2
Defpoints
70
0
62
7
6
CONTINUOUS
290
0
370
-3
390
F
0
LAYER
5
45
330
2
100
AcDbSymbolTableRecord
100
AcDbLayerTableRecord
2
Gasket_B-01a
70
1
62
251
420
6710886
6
CONTINUOUS
370
0
390
F
0
LAYER
5
46
330
2
100
AcDbSymbolTableRecord
100
AcDbLayerTableRecord
2
Gasket_B-01b
70
1
62
251
420
6710886
6
CONTINUOUS
370
0
390
F
0
LAYER
5
47
330
2
100
AcDbSymbolTableRecord
100
AcDbLayerTableRecord
2
Gasket_B-02a
70
1
62
251
420
6710886
6
CONTINUOUS
370
0
390
F
0
LAYER
5
48
330
2
100
AcDbSymbolTableRecord
100
AcDbLayerTableRecord
2
Gasket_B-02b
70
1
62
251
420
6710886
6
CONTINUOUS
370
0
390
F
0
LAYER
5
49
330
2
100
AcDbSymbolTableRecord
100
AcDbLayerTableRecord
2
Measurements
70
1
62
95
420
4172091
6
CONTINUOUS
370
0
390
F
0
LAYER
5
4A
330
2
100
AcDbSymbolTableRecord
100
AcDbLayerTableRecord
2
PTFE_B-01a
70
1
62
7
6
CONTINUOUS
370
-3
390
F
0
LAYER
5
4B
330
2
100
AcDbSymbolTableRecord
100
AcDbLayerTableRecord
2
PTFE_B-01b
70
0
62
7
6
CONTINUOUS
370
0
390
F
0
LAYER
5
4C
330
2
100
AcDbSymbolTableRecord
100
AcDbLayerTableRecord
2
PTFE_B-02a
70
0
62
7
6
CONTINUOUS
370
0
390
F
0
LAYER
5
4D
330
2
100
AcDbSymbolTableRecord
100
AcDbLayerTableRecord
2
PTFE_B-02b
70
0
62
7
6
CONTINUOUS
370
0
390
F
0
LAYER
5
4E
330
2
100
AcDbSymbolTableRecord
100
AcDbLayerTableRecord
2
Red_Text
70
0
62
1
6
CONTINUOUS
370
0
390
F
0
LAYER
5
4F
330
2
100
AcDbSymbolTableRecord
100
AcDbLayerTableRecord
2
Temp_Probe
70
0
62
223
420
14504626
6
CONTINUOUS
370
0
390
F
0
LAYER
5
50
330
2
100
AcDbSymbolTableRecord
100
AcDbLayerTableRecord
2
_Annotations
70
0
62
240
420
15673146
6
CONTINUOUS
370
25
390
F
0
LAYER
5
51
330
2
100
AcDbSymbolTableRecord
100
AcDbLayerTableRecord
2
test
70
0
62
7
6
CONTINUOUS
370
0
390
F
0
ENDTAB
0
TABLE
2
STYLE
5
3
330
0
100
AcDbSymbolTable
70
3
0
STYLE
5
52
330
2
100
AcDbSymbolTableRecord
100
AcDbTextStyleTableRecord
2
standard 360
70
0
40
0
41
1
50
0
71
0
42
1
3
standard 360
4

0
STYLE
5
53
330
2
100
AcDbSymbolTableRecord
100
AcDbTextStyleTableRecord
2
Standard
70
0
40
0
41
1
50
0
71
0
42
1
3
txt
4

0
ENDTAB
0
TABLE
2
VIEW
5
6
330
0
100
AcDbSymbolTable
70
0
0
ENDTAB
0
TABLE
2
UCS
5
7
330
0
100
AcDbSymbolTable
70
0
0
ENDTAB
0
TABLE
2
APPID
5
9
330
0
100
AcDbSymbolTable
70
1
0
APPID
5
12
330
9
100
AcDbSymbolTableRecord
100
AcDbRegAppTableRecord
2
ACAD
70
0
0
APPID
5
54
330
9
100
AcDbSymbolTableRecord
100
AcDbRegAppTableRecord
2
LibreCad
70
0
0
ENDTAB
0
TABLE
2
DIMSTYLE
5
A
330
0
100
AcDbSymbolTable
70
1
100
AcDbDimStyleTable
71
1
0
DIMSTYLE
105
55
330
A
100
AcDbSymbolTableRecord
100
AcDbDimStyleTableRecord
2
Standard
70
0
40
1
41
0.18
42
0.0625
43
0.38
44
0.18
45
0
46
0
47
0
48
0
140
0.18
141
0.09
142
0
143
25.4
144
1
145
0
146
1
147
0.09
148
0
71
0
72
0
73
0
74
1
75
0
76
0
77
0
78
0
79
0
170
0
171
2
172
0
173
0
174
0
175
0
176
0
177
0
178
0
179
0
271
4
272
4
273
2
274
2
275
0
276
0
277
2
278
46
279
0
280
0
281
0
282
0
283
1
284
0
285
0
286
0
288
0
289
3
340
Standard
341

371
-2
372
-2
0
ENDTAB
0
TABLE
2
BLOCK_RECORD
5
1
330
0
100
AcDbSymbolTable
70
2
0
BLOCK_RECORD
5
1F
330
1
100
AcDbSymbolTableRecord
100
AcDbBlockTableRecord
2
*Model_Space
70
0
280
1
281
0
0
BLOCK_RECORD
5
1E
330
1
100
AcDbSymbolTableRecord
100
AcDbBlockTableRecord
2
*Paper_Space
70
0
280
1
281
0
0
BLOCK_RECORD
5
56
330
1
100
AcDbSymbolTableRecord
100
AcDbBlockTableRecord
2
*D21
70
0
280
1
281
0
0
BLOCK_RECORD
5
59
330
1
100
AcDbSymbolTableRecord
100
AcDbBlockTableRecord
2
*D22
70
0
280
1
281
0
0
BLOCK_RECORD
5
5C
330
1
100
AcDbSymbolTableRecord
100
AcDbBlockTableRecord
2
*D15
70
0
280
1
281
0
0
BLOCK_RECORD
5
5F
330
1
100
AcDbSymbolTableRecord
100
AcDbBlockTableRecord
2
*D16
70
0
280
1
281
0
0
BLOCK_RECORD
5
62
330
1
100
AcDbSymbolTableRecord
100
AcDbBlockTableRecord
2
*D24
70
0
280
1
281
0
0
BLOCK_RECORD
5
65
330
1
100
AcDbSymbolTableRecord
100
AcDbBlockTableRecord
2
*D25
70
0
280
1
281
0
0
BLOCK_RECORD
5
68
330
1
100
AcDbSymbolTableRecord
100
AcDbBlockTableRecord
2
*D8
70
0
280
1
281
0
0
BLOCK_RECORD
5
6B
330
1
100
AcDbSymbolTableRecord
100
AcDbBlockTableRecord
2
*D27
70
0
280
1
281
0
0
BLOCK_RECORD
5
6E
330
1
100
AcDbSymbolTableRecord
100
AcDbBlockTableRecord
2
*D1
70
0
280
1
281
0
0
BLOCK_RECORD
5
71
330
1
100
AcDbSymbolTableRecord
100
AcDbBlockTableRecord
2
*D18
70
0
280
1
281
0
0
BLOCK_RECORD
5
74
330
1
100
AcDbSymbolTableRecord
100
AcDbBlockTableRecord
2
*D19
70
0
280
1
281
0
0
BLOCK_RECORD
5
77
330
1
100
AcDbSymbolTableRecord
100
AcDbBlockTableRecord
2
*D12
70
0
280
1
281
0
0
BLOCK_RECORD
5
7A
330
1
100
AcDbSymbolTableRecord
100
AcDbBlockTableRecord
2
*D4
70
0
280
1
281
0
0
BLOCK_RECORD
5
7D
330
1
100
AcDbSymbolTableRecord
100
AcDbBlockTableRecord
2
*D13
70
0
280
1
281
0
0
BLOCK_RECORD
5
80
330
1
100
AcDbSymbolTableRecord
100
AcDbBlockTableRecord
2
*D2
70
0
280
1
281
0
0
BLOCK_RECORD
5
83
330
1
100
AcDbSymbolTableRecord
100
AcDbBlockTableRecord
2
*D3
70
0
280
1
281
0
0
BLOCK_RECORD
5
86
330
1
100
AcDbSymbolTableRecord
100
AcDbBlockTableRecord
2
*D11
70
0
280
1
281
0
0
BLOCK_RECORD
5
89
330
1
100
AcDbSymbolTableRecord
100
AcDbBlockTableRecord
2
*D17
70
0
280
1
281
0
0
BLOCK_RECORD
5
8C
330
1
100
AcDbSymbolTableRecord
100
AcDbBlockTableRecord
2
*D9
70
0
280
1
281
0
0
BLOCK_RECORD
5
8F
330
1
100
AcDbSymbolTableRecord
100
AcDbBlockTableRecord
2
*D6
70
0
280
1
281
0
0
BLOCK_RECORD
5
92
330
1
100
AcDbSymbolTableRecord
100
AcDbBlockTableRecord
2
*D5
70
0
280
1
281
0
0
BLOCK_RECORD
5
95
330
1
100
AcDbSymbolTableRecord
100
AcDbBlockTableRecord
2
*D14
70
0
280
1
281
0
0
BLOCK_RECORD
5
98
330
1
100
AcDbSymbolTableRecord
100
AcDbBlockTableRecord
2
*D7
70
0
280
1
281
0
0
BLOCK_RECORD
5
9B
330
1
100
AcDbSymbolTableRecord
100
AcDbBlockTableRecord
2
*D29
70
0
280
1
281
0
0
BLOCK_RECORD
5
9E
330
1
100
AcDbSymbolTableRecord
100
AcDbBlockTableRecord
2
*D23
70
0
280
1
281
0
0
BLOCK_RECORD
5
A1
330
1
100
AcDbSymbolTableRecord
100
AcDbBlockTableRecord
2
*D26
70
0
280
1
281
0
0
BLOCK_RECORD
5
A4
330
1
100
AcDbSymbolTableRecord
100
AcDbBlockTableRecord
2
*D28
70
0
280
1
281
0
0
BLOCK_RECORD
5
A7
330
1
100
AcDbSymbolTableRecord
100
AcDbBlockTableRecord
2
*D10
70
0
280
1
281
0
0
BLOCK_RECORD
5
AA
330
1
100
AcDbSymbolTableRecord
100
AcDbBlockTableRecord
2
*D20
70
0
280
1
281
0
0
BLOCK_RECORD
5
AD
330
1
100
AcDbSymbolTableRecord
100
AcDbBlockTableRecord
2
Cloud0
70
0
280
1
281
0
0
BLOCK_RECORD
5
B0
330
1
100
AcDbSymbolTableRecord
100
AcDbBlockTableRecord
2
Cloud1
70
0
280
1
281
0
0
ENDTAB
0
ENDSEC
0
SECTION
2
BLOCKS
0
BLOCK
5
20
330
1F
100
AcDbEntity
8
0
100
AcDbBlockBegin
2
*Model_Space
70
0
10
0
20
0
30
0
3
*Model_Space
1

0
ENDBLK
5
21
330
1F
100
AcDbEntity
8
0
100
AcDbBlockEnd
0
BLOCK
5
1C
330
1B
100
AcDbEntity
8
0
100
AcDbBlockBegin
2
*Paper_Space
70
0
10
0
20
0
30
0
3
*Paper_Space
1

0
ENDBLK
5
1D
330
1F
100
AcDbEntity
8
0
100
AcDbBlockEnd
0
BLOCK
5
57
330
56
100
AcDbEntity
8
0
100
AcDbBlockBegin
2
*D21
70
1
10
0
20
0
3
*D21
1

0
LINE
5
B3
100
AcDbEntity
8
Measurements
6
CONTINUOUS
62
7
370
0
100
AcDbLine
10
3.3721875
20
13.81
11
5.0972324409
21
13.81
0
LINE
5
B4
100
AcDbEntity
8
Measurements
6
CONTINUOUS
62
7
370
0
100
AcDbLine
10
3.3721875
20
6.19
11
5.0972324409
21
6.19
0
LINE
5
B5
100
AcDbEntity
8
Measurements
6
CONTINUOUS
62
7
370
0
100
AcDbLine
10
4.9172324409
20
13.81
11
4.9172324409
21
10.18
0
SOLID
5
B6
100
AcDbEntity
8
Measurements
6
CONTINUOUS
62
7
370
0
100
AcDbTrace
10
4.9172324409
20
13.81
30
0
11
4.94720493626
21
13.63
31
0
12
4.88725994554
22
13.63
32
0
13
4.88725994554
23
13.63
33
0
0
SOLID
5
B7
100
AcDbEntity
8
Measurements
6
CONTINUOUS
62
7
370
0
100
AcDbTrace
10
4.9172324409
20
6.19
30
0
11
4.88725994554
21
6.37
31
0
12
4.94720493626
22
6.37
32
0
13
4.94720493626
23
6.37
33
0
0
LINE
5
B8
100
AcDbEntity
8
Measurements
6
CONTINUOUS
62
7
370
0
100
AcDbLine
10
4.9172324409
20
9.82
11
4.9172324409
21
6.19
0
MTEXT
5
B9
100
AcDbEntity
8
Measurements
6
CONTINUOUS
62
7
370
0
100
AcDbMText
10
4.9172324409
20
10
30
0
40
0.18
41
0.7
71
5
72
1
1
7.6200
7
standard
210
0
220
0
230
1
50
0
73
2
44
1
0
ENDBLK
5
58
330
56
100
AcDbEntity
8
0
100
AcDbBlockEnd
0
BLOCK
5
5A
330
59
100
AcDbEntity
8
0
100
AcDbBlockBegin
2
*D22
70
1
10
0
20
0
3
*D22
1

0
LINE
5
BA
100
AcDbEntity
8
Measurements
6
CONTINUOUS
62
7
370
0
100
AcDbLine
10
0.7696875
20
13.8725
11
0.7696875
21
15.2629364597
0
LINE
5
BB
100
AcDbEntity
8
Measurements
6
CONTINUOUS
62
7
370
0
100
AcDbLine
10
3.3096875
20
13.8725
11
3.3096875
21
15.2629364597
0
LINE
5
BC
100
AcDbEntity
8
Measurements
6
CONTINUOUS
62
7
370
0
100
AcDbLine
10
0.7696875
20
15.0829364597
11
1.5896875
21
15.0829364597
0
SOLID
5
BD
100
AcDbEntity
8
Measurements
6
CONTINUOUS
62
7
370
0
100
AcDbTrace
10
0.7696875
20
15.0829364597
30
0
11
0.9496875
21
15.112908955
31
0
12
0.9496875
22
15.0529639643
32
0
13
0.9496875
23
15.0529639643
33
0
0
SOLID
5
BE
100
AcDbEntity
8
Measurements
6
CONTINUOUS
62
7
370
0
100
AcDbTrace
10
3.3096875
20
15.0829364597
30
0
11
3.1296875
21
15.0529639643
31
0
12
3.1296875
22
15.112908955
32
0
13
3.1296875
23
15.112908955
33
0
0
LINE
5
BF
100
AcDbEntity
8
Measurements
6
CONTINUOUS
62
7
370
0
100
AcDbLine
10
2.4896875
20
15.0829364597
11
3.3096875
21
15.0829364597
0
MTEXT
5
C0
100
AcDbEntity
8
Measurements
6
CONTINUOUS
62
7
370
0
100
AcDbMText
10
2.0396875
20
15.0829364597
30
0
40
0.18
41
0.72
71
5
72
1
1
2.5400
7
standard
210
0
220
0
230
1
50
0
73
2
44
1
0
ENDBLK
5
5B
330
59
100
AcDbEntity
8
0
100
AcDbBlockEnd
0
BLOCK
5
5D
330
5C
100
AcDbEntity
8
0
100
AcDbBlockBegin
2
*D15
70
1
10
0
20
0
3
*D15
1

0
LINE
5
C1
100
AcDbEntity
8
Measurements
6
CONTINUOUS
62
7
370
0
100
AcDbLine
10
-9.34953848428
20
6.12752503027
11
-9.34796098117
21
4.52478187074
0
LINE
5
C2
100
AcDbEntity
8
Measurements
6
CONTINUOUS
62
7
370
0
100
AcDbLine
10
-9.40033848428
20
6.12747503027
11
-9.39876098117
21
4.52473187074
0
LINE
5
C3
100
AcDbEntity
8
Measurements
6
CONTINUOUS
62
7
370
0
100
AcDbLine
10
-8.98813832082
20
4.70513611409
11
-9.75893797206
21
4.70437745301
0
SOLID
5
C4
100
AcDbEntity
8
Measurements
6
CONTINUOUS
62
7
370
0
100
AcDbTrace
10
-9.34813814644
20
4.70478178355
30
0
11
-9.1681677341
21
4.73493142966
31
0
12
-9.16810873315
22
4.67498646798
32
0
13
-9.16810873315
23
4.67498646798
33
0
0
SOLID
5
C5
100
AcDbEntity
8
Measurements
6
CONTINUOUS
62
7
370
0
100
AcDbTrace
10
-9.39893814644
20
4.70473178355
30
0
11
-9.57890855878
21
4.67458213744
31
0
12
-9.57896755973
22
4.73452709912
32
0
13
-9.57896755973
23
4.73452709912
33
0
0
MTEXT
5
C6
100
AcDbEntity
8
Measurements
6
CONTINUOUS
62
7
370
0
100
AcDbMText
10
-8.90813813414
20
4.70475678355
30
0
40
0.18
41
0.7
71
5
72
1
1
0.0508
7
standard
210
0
220
0
230
1
50
0
73
2
44
1
0
ENDBLK
5
5E
330
5C
100
AcDbEntity
8
0
100
AcDbBlockEnd
0
BLOCK
5
60
330
5F
100
AcDbEntity
8
0
100
AcDbBlockBegin
2
*D16
70
1
10
0
20
0
3
*D16
1

0
LINE
5
C7
100
AcDbEntity
8
Measurements
6
CONTINUOUS
62
7
370
0
100
AcDbLine
10
0.6278125
20
13.357525
11
-0.252231767072
21
13.357525
0
LINE
5
C8
100
AcDbEntity
8
Measurements
6
CONTINUOUS
62
7
370
0
100
AcDbLine
10
0.6278125
20
6.642525
11
-0.252231767072
21
6.642525
0
LINE
5
C9
100
AcDbEntity
8
Measurements
6
CONTINUOUS
62
7
370
0
100
AcDbLine
10
-0.0722317670722
20
13.357525
11
-0.0722317670722
21
10.180025
0
SOLID
5
CA
100
AcDbEntity
8
Measurements
6
CONTINUOUS
62
7
370
0
100
AcDbTrace
10
-0.0722317670722
20
13.357525
30
0
11
-0.0422592717125
21
13.177525
31
0
12
-0.102204262432
22
13.177525
32
0
13
-0.102204262432
23
13.177525
33
0
0
SOLID
5
CB
100
AcDbEntity
8
Measurements
6
CONTINUOUS
62
7
370
0
100
AcDbTrace
10
-0.0722317670722
20
6.642525
30
0
11
-0.102204262432
21
6.822525
31
0
12
-0.0422592717125
22
6.822525
32
0
13
-0.0422592717125
23
6.822525
33
0
0
LINE
5
CC
100
AcDbEntity
8
Measurements
6
CONTINUOUS
62
7
370
0
100
AcDbLine
10
-0.0722317670722
20
9.820025
11
-0.0722317670722
21
6.642525
0
MTEXT
5
CD
100
AcDbEntity
8
Measurements
6
CONTINUOUS
62
7
370
0
100
AcDbMText
10
-0.0722317670722
20
10.000025
30
0
40
0.18
41
0.66
71
5
72
1
1
6.7150
7
standard
210
0
220
0
230
1
50
0
73
2
44
1
0
ENDBLK
5
61
330
5F
100
AcDbEntity
8
0
100
AcDbBlockEnd
0
BLOCK
5
63
330
62
100
AcDbEntity
8
0
100
AcDbBlockBegin
2
*D24
70
1
10
0
20
0
3
*D24
1

0
LINE
5
CE
100
AcDbEntity
8
Measurements
6
CONTINUOUS
62
7
370
0
100
AcDbLine
10
13.3353231433
20
15.052303616
11
13.9177198257
21
15.052303616
0
LINE
5
CF
100
AcDbEntity
8
Measurements
6
CONTINUOUS
62
7
370
0
100
AcDbLine
10
13.3353231433
20
8.55230361596
11
13.9177198257
21
8.55230361596
0
LINE
5
D0
100
AcDbEntity
8
Measurements
6
CONTINUOUS
62
7
370
0
100
AcDbLine
10
13.7377198257
20
15.052303616
11
13.7377198257
21
8.55230361596
0
SOLID
5
D1
100
AcDbEntity
8
Measurements
6
CONTINUOUS
62
7
370
0
100
AcDbTrace
10
13.7377198257
20
15.052303616
30
0
11
13.7676923211
21
14.872303616
31
0
12
13.7077473303
22
14.872303616
32
0
13
13.7077473303
23
14.872303616
33
0
0
SOLID
5
D2
100
AcDbEntity
8
Measurements
6
CONTINUOUS
62
7
370
0
100
AcDbTrace
10
13.7377198257
20
8.55230361596
30
0
11
13.7077473303
21
8.73230361596
31
0
12
13.7676923211
22
8.73230361596
32
0
13
13.7676923211
23
8.73230361596
33
0
0
MTEXT
5
D3
100
AcDbEntity
8
Measurements
6
CONTINUOUS
62
7
370
0
100
AcDbMText
10
2.08566729461
20
-4.44142853568
30
0
40
0.18
41
0.7
71
5
72
1
1
6.5000
7
standard
210
0
220
0
230
1
50
0
73
2
44
1
0
ENDBLK
5
64
330
62
100
AcDbEntity
8
0
100
AcDbBlockEnd
0
BLOCK
5
66
330
65
100
AcDbEntity
8
0
100
AcDbBlockBegin
2
*D25
70
1
10
0
20
0
3
*D25
1

0
LINE
5
D4
100
AcDbEntity
8
Measurements
6
CONTINUOUS
62
7
370
0
100
AcDbLine
10
3.3721875
20
9.692525
11
4.1239375
21
9.692525
0
LINE
5
D5
100
AcDbEntity
8
Measurements
6
CONTINUOUS
62
7
370
0
100
AcDbLine
10
3.3721875
20
9.057525
11
4.1239375
21
9.057525
0
LINE
5
D6
100
AcDbEntity
8
Measurements
6
CONTINUOUS
62
7
370
0
100
AcDbLine
10
3.9439375
20
9.692525
11
3.9439375
21
9.555025
0
SOLID
5
D7
100
AcDbEntity
8
Measurements
6
CONTINUOUS
62
7
370
0
100
AcDbTrace
10
3.9439375
20
9.692525
30
0
11
3.97390999536
21
9.512525
31
0
12
3.91396500464
22
9.512525
32
0
13
3.91396500464
23
9.512525
33
0
0
SOLID
5
D8
100
AcDbEntity
8
Measurements
6
CONTINUOUS
62
7
370
0
100
AcDbTrace
10
3.9439375
20
9.057525
30
0
11
3.91396500464
21
9.237525
31
0
12
3.97390999536
22
9.237525
32
0
13
3.97390999536
23
9.237525
33
0
0
LINE
5
D9
100
AcDbEntity
8
Measurements
6
CONTINUOUS
62
7
370
0
100
AcDbLine
10
3.9439375
20
9.195025
11
3.9439375
21
9.057525
0
MTEXT
5
DA
100
AcDbEntity
8
Measurements
6
CONTINUOUS
62
7
370
0
100
AcDbMText
10
4.7014375
20
9.375025
30
0
40
0.18
41
0.7
71
5
72
1
1
0.6350
7
standard
210
0
220
0
230
1
50
0
73
2
44
1
0
ENDBLK
5
67
330
65
100
AcDbEntity
8
0
100
AcDbBlockEnd
0
BLOCK
5
69
330
68
100
AcDbEntity
8
0
100
AcDbBlockBegin
2
*D8
70
1
10
0
20
0
3
*D8
1

0
LINE
5
DB
100
AcDbEntity
8
Measurements
6
CONTINUOUS
62
7
370
0
100
AcDbLine
10
-12.405
20
12.342525
11
-12.405
21
10.978025
0
LINE
5
DC
100
AcDbEntity
8
Measurements
6
CONTINUOUS
62
7
370
0
100
AcDbLine
10
-13.81
20
12.342525
11
-13.81
21
10.978025
0
LINE
5
DD
100
AcDbEntity
8
Measurements
6
CONTINUOUS
62
7
370
0
100
AcDbLine
10
-12.405
20
11.158025
11
-12.6775
21
11.158025
0
SOLID
5
DE
100
AcDbEntity
8
Measurements
6
CONTINUOUS
62
7
370
0
100
AcDbTrace
10
-12.405
20
11.158025
30
0
11
-12.585
21
11.1280525046
31
0
12
-12.585
22
11.1879974954
32
0
13
-12.585
23
11.1879974954
33
0
0
SOLID
5
DF
100
AcDbEntity
8
Measurements
6
CONTINUOUS
62
7
370
0
100
AcDbTrace
10
-13.81
20
11.158025
30
0
11
-13.63
21
11.1879974954
31
0
12
-13.63
22
11.1280525046
32
0
13
-13.63
23
11.1280525046
33
0
0
LINE
5
E0
100
AcDbEntity
8
Measurements
6
CONTINUOUS
62
7
370
0
100
AcDbLine
10
-13.5375
20
11.158025
11
-13.81
21
11.158025
0
MTEXT
5
E1
100
AcDbEntity
8
Measurements
6
CONTINUOUS
62
7
370
0
100
AcDbMText
10
-13.1075
20
11.158025
30
0
40
0.18
41
0.68
71
5
72
1
1
1.4050
7
standard
210
0
220
0
230
1
50
0
73
2
44
1
0
ENDBLK
5
6A
330
68
100
AcDbEntity
8
0
100
AcDbBlockEnd
0
BLOCK
5
6C
330
6B
100
AcDbEntity
8
0
100
AcDbBlockBegin
2
*D27
70
1
10
0
20
0
3
*D27
1

0
SOLID
5
E2
100
AcDbEntity
8
Measurements
6
CONTINUOUS
62
7
370
0
100
AcDbTrace
10
-10.3075
20
9.375025
30
0
11
-10.1275
21
9.40499749536
31
0
12
-10.1275
22
9.34505250464
32
0
13
-10.1275
23
9.34505250464
33
0
0
LINE
5
E3
100
AcDbEntity
8
Measurements
6
CONTINUOUS
62
7
370
0
100
AcDbLine
10
-10.625
20
9.375025
11
-9.2875
21
9.375025
0
MTEXT
5
E4
100
AcDbEntity
8
Measurements
6
CONTINUOUS
62
7
370
0
100
AcDbMText
10
-6.6425
20
9.375025
30
0
40
0.18
41
0.66
71
5
72
1
1
0.3175
7
standard
210
0
220
0
230
1
50
0
73
2
44
1
0
ENDBLK
5
6D
330
6B
100
AcDbEntity
8
0
100
AcDbBlockEnd
0
BLOCK
5
6F
330
6E
100
AcDbEntity
8
0
100
AcDbBlockBegin
2
*D1
70
1
10
0
20
0
3
*D1
1

0
LINE
5
E5
100
AcDbEntity
8
Measurements
6
CONTINUOUS
62
7
370
0
100
AcDbLine
10
-9
20
11.062525
11
-9
21
14.5288009575
0
LINE
5
E6
100
AcDbEntity
8
Measurements
6
CONTINUOUS
62
7
370
0
100
AcDbLine
10
-11
20
11.062525
11
-11
21
14.5288009575
0
LINE
5
E7
100
AcDbEntity
8
Measurements
6
CONTINUOUS
62
7
370
0
100
AcDbLine
10
-9
20
14.3488009575
11
-9.56
21
14.3488009575
0
SOLID
5
E8
100
AcDbEntity
8
Measurements
6
CONTINUOUS
62
7
370
0
100
AcDbTrace
10
-9
20
14.3488009575
30
0
11
-9.18
21
14.3188284621
31
0
12
-9.18
22
14.3787734529
32
0
13
-9.18
23
14.3787734529
33
0
0
SOLID
5
E9
100
AcDbEntity
8
Measurements
6
CONTINUOUS
62
7
370
0
100
AcDbTrace
10
-11
20
14.3488009575
30
0
11
-10.82
21
14.3787734529
31
0
12
-10.82
22
14.3188284621
32
0
13
-10.82
23
14.3188284621
33
0
0
LINE
5
EA
100
AcDbEntity
8
Measurements
6
CONTINUOUS
62
7
370
0
100
AcDbLine
10
-10.44
20
14.3488009575
11
-11
21
14.3488009575
0
MTEXT
5
EB
100
AcDbEntity
8
Measurements
6
CONTINUOUS
62
7
370
0
100
AcDbMText
10
-10
20
14.3488009575
30
0
40
0.18
41
0.7
71
5
72
1
1
2.0000
7
standard
210
0
220
0
230
1
50
0
73
2
44
1
0
ENDBLK
5
70
330
6E
100
AcDbEntity
8
0
100
AcDbBlockEnd
0
BLOCK
5
72
330
71
100
AcDbEntity
8
0
100
AcDbBlockBegin
2
*D18
70
1
10
0
20
0
3
*D18
1

0
LINE
5
EC
100
AcDbEntity
8
Measurements
6
CONTINUOUS
62
7
370
0
100
AcDbLine
10
0.7696875
20
6.1275
11
0.7696875
21
5.43189646795
0
LINE
5
ED
100
AcDbEntity
8
Measurements
6
CONTINUOUS
62
7
370
0
100
AcDbLine
10
0.9657125
20
6.1275
11
0.9657125
21
5.43189646795
0
LINE
5
EE
100
AcDbEntity
8
Measurements
6
CONTINUOUS
62
7
370
0
100
AcDbLine
10
0.4096875
20
5.61189646795
11
0.4477
21
5.61189646795
0
SOLID
5
EF
100
AcDbEntity
8
Measurements
6
CONTINUOUS
62
7
370
0
100
AcDbTrace
10
0.7696875
20
5.61189646795
30
0
11
0.5896875
21
5.58192397259
31
0
12
0.5896875
22
5.64186896331
32
0
13
0.5896875
23
5.64186896331
33
0
0
SOLID
5
F0
100
AcDbEntity
8
Measurements
6
CONTINUOUS
62
7
370
0
100
AcDbTrace
10
0.9657125
20
5.61189646795
30
0
11
1.1457125
21
5.64186896331
31
0
12
1.1457125
22
5.58192397259
32
0
13
1.1457125
23
5.58192397259
33
0
0
LINE
5
F1
100
AcDbEntity
8
Measurements
6
CONTINUOUS
62
7
370
0
100
AcDbLine
10
1.2877
20
5.61189646795
11
1.3257125
21
5.61189646795
0
MTEXT
5
F2
100
AcDbEntity
8
Measurements
6
CONTINUOUS
62
7
370
0
100
AcDbMText
10
1.3857125
20
5.61189646795
30
0
40
0.18
41
0.66
71
5
72
1
1
0.1960
7
standard
210
0
220
0
230
1
50
0
73
2
44
1
0
ENDBLK
5
73
330
71
100
AcDbEntity
8
0
100
AcDbBlockEnd
0
BLOCK
5
75
330
74
100
AcDbEntity
8
0
100
AcDbBlockBegin
2
*D19
70
1
10
0
20
0
3
*D19
1

0
LINE
5
F3
100
AcDbEntity
8
Measurements
6
CONTINUOUS
62
7
370
0
100
AcDbLine
10
3.3721875
20
12.7225
11
4.1246875
21
12.7225
0
LINE
5
F4
100
AcDbEntity
8
Measurements
6
CONTINUOUS
62
7
370
0
100
AcDbLine
10
3.3721875
20
12.0875
11
4.1246875
21
12.0875
0
LINE
5
F5
100
AcDbEntity
8
Measurements
6
CONTINUOUS
62
7
370
0
100
AcDbLine
10
3.9446875
20
12.7225
11
3.9446875
21
12.585
0
SOLID
5
F6
100
AcDbEntity
8
Measurements
6
CONTINUOUS
62
7
370
0
100
AcDbTrace
10
3.9446875
20
12.7225
30
0
11
3.97465999536
21
12.5425
31
0
12
3.91471500464
22
12.5425
32
0
13
3.91471500464
23
12.5425
33
0
0
SOLID
5
F7
100
AcDbEntity
8
Measurements
6
CONTINUOUS
62
7
370
0
100
AcDbTrace
10
3.9446875
20
12.0875
30
0
11
3.91471500464
21
12.2675
31
0
12
3.97465999536
22
12.2675
32
0
13
3.97465999536
23
12.2675
33
0
0
LINE
5
F8
100
AcDbEntity
8
Measurements
6
CONTINUOUS
62
7
370
0
100
AcDbLine
10
3.9446875
20
12.225
11
3.9446875
21
12.0875
0
MTEXT
5
F9
100
AcDbEntity
8
Measurements
6
CONTINUOUS
62
7
370
0
100
AcDbMText
10
4.7021875
20
12.405
30
0
40
0.18
41
0.7
71
5
72
1
1
0.6350
7
standard
210
0
220
0
230
1
50
0
73
2
44
1
0
ENDBLK
5
76
330
74
100
AcDbEntity
8
0
100
AcDbBlockEnd
0
BLOCK
5
78
330
77
100
AcDbEntity
8
0
100
AcDbBlockBegin
2
*D12
70
1
10
0
20
0
3
*D12
1

0
LINE
5
FA
100
AcDbEntity
8
Measurements
6
CONTINUOUS
62
7
370
0
100
AcDbLine
10
-10.6875
20
9.375025
11
-11.597728339
21
9.375025
0
LINE
5
FB
100
AcDbEntity
8
Measurements
6
CONTINUOUS
62
7
370
0
100
AcDbLine
10
-10.6875
20
6.190025
11
-11.597728339
21
6.190025
0
LINE
5
FC
100
AcDbEntity
8
Measurements
6
CONTINUOUS
62
7
370
0
100
AcDbLine
10
-11.417728339
20
9.375025
11
-11.417728339
21
7.962525
0
SOLID
5
FD
100
AcDbEntity
8
Measurements
6
CONTINUOUS
62
7
370
0
100
AcDbTrace
10
-11.417728339
20
9.375025
30
0
11
-11.3877558436
21
9.195025
31
0
12
-11.4477008344
22
9.195025
32
0
13
-11.4477008344
23
9.195025
33
0
0
SOLID
5
FE
100
AcDbEntity
8
Measurements
6
CONTINUOUS
62
7
370
0
100
AcDbTrace
10
-11.417728339
20
6.190025
30
0
11
-11.4477008344
21
6.370025
31
0
12
-11.3877558436
22
6.370025
32
0
13
-11.3877558436
23
6.370025
33
0
0
LINE
5
FF
100
AcDbEntity
8
Measurements
6
CONTINUOUS
62
7
370
0
100
AcDbLine
10
-11.417728339
20
7.602525
11
-11.417728339
21
6.190025
0
MTEXT
5
100
100
AcDbEntity
8
Measurements
6
CONTINUOUS
62
7
370
0
100
AcDbMText
10
-11.417728339
20
7.782525
30
0
40
0.18
41
0.66
71
5
72
1
1
3.1850
7
standard
210
0
220
0
230
1
50
0
73
2
44
1
0
ENDBLK
5
79
330
77
100
AcDbEntity
8
0
100
AcDbBlockEnd
0
BLOCK
5
7B
330
7A
100
AcDbEntity
8
0
100
AcDbBlockBegin
2
*D4
70
1
10
0
20
0
3
*D4
1

0
LINE
5
101
100
AcDbEntity
8
Measurements
6
CONTINUOUS
62
7
370
0
100
AcDbLine
10
-13.81
20
13.872525
11
-13.81
21
15.5699983507
0
LINE
5
102
100
AcDbEntity
8
Measurements
6
CONTINUOUS
62
7
370
0
100
AcDbLine
10
-6.19
20
13.872525
11
-6.19
21
15.5699983507
0
LINE
5
103
100
AcDbEntity
8
Measurements
6
CONTINUOUS
62
7
370
0
100
AcDbLine
10
-13.81
20
15.3899983507
11
-10.44
21
15.3899983507
0
SOLID
5
104
100
AcDbEntity
8
Measurements
6
CONTINUOUS
62
7
370
0
100
AcDbTrace
10
-13.81
20
15.3899983507
30
0
11
-13.63
21
15.4199708461
31
0
12
-13.63
22
15.3600258554
32
0
13
-13.63
23
15.3600258554
33
0
0
SOLID
5
105
100
AcDbEntity
8
Measurements
6
CONTINUOUS
62
7
370
0
100
AcDbTrace
10
-6.19
20
15.3899983507
30
0
11
-6.37
21
15.3600258554
31
0
12
-6.37
22
15.4199708461
32
0
13
-6.37
23
15.4199708461
33
0
0
LINE
5
106
100
AcDbEntity
8
Measurements
6
CONTINUOUS
62
7
370
0
100
AcDbLine
10
-9.56
20
15.3899983507
11
-6.19
21
15.3899983507
0
MTEXT
5
107
100
AcDbEntity
8
Measurements
6
CONTINUOUS
62
7
370
0
100
AcDbMText
10
-10
20
15.3899983507
30
0
40
0.18
41
0.7
71
5
72
1
1
7.6200
7
standard
210
0
220
0
230
1
50
0
73
2
44
1
0
ENDBLK
5
7C
330
7A
100
AcDbEntity
8
0
100
AcDbBlockEnd
0
BLOCK
5
7E
330
7D
100
AcDbEntity
8
0
100
AcDbBlockBegin
2
*D13
70
1
10
0
20
0
3
*D13
1

0
LINE
5
108
100
AcDbEntity
8
Measurements
6
CONTINUOUS
62
7
370
0
100
AcDbLine
10
-10.625
20
9.312525
11
-10.625
21
8.3810169863
0
LINE
5
109
100
AcDbEntity
8
Measurements
6
CONTINUOUS
62
7
370
0
100
AcDbLine
10
-13.81
20
9.312525
11
-13.81
21
8.3810169863
0
LINE
5
10A
100
AcDbEntity
8
Measurements
6
CONTINUOUS
62
7
370
0
100
AcDbLine
10
-10.625
20
8.5610169863
11
-11.7975
21
8.5610169863
0
SOLID
5
10B
100
AcDbEntity
8
Measurements
6
CONTINUOUS
62
7
370
0
100
AcDbTrace
10
-10.625
20
8.5610169863
30
0
11
-10.805
21
8.53104449094
31
0
12
-10.805
22
8.59098948166
32
0
13
-10.805
23
8.59098948166
33
0
0
SOLID
5
10C
100
AcDbEntity
8
Measurements
6
CONTINUOUS
62
7
370
0
100
AcDbTrace
10
-13.81
20
8.5610169863
30
0
11
-13.63
21
8.59098948166
31
0
12
-13.63
22
8.53104449094
32
0
13
-13.63
23
8.53104449094
33
0
0
LINE
5
10D
100
AcDbEntity
8
Measurements
6
CONTINUOUS
62
7
370
0
100
AcDbLine
10
-12.6375
20
8.5610169863
11
-13.81
21
8.5610169863
0
MTEXT
5
10E
100
AcDbEntity
8
Measurements
6
CONTINUOUS
62
7
370
0
100
AcDbMText
10
-12.2175
20
8.5610169863
30
0
40
0.18
41
0.66
71
5
72
1
1
3.1850
7
standard
210
0
220
0
230
1
50
0
73
2
44
1
0
ENDBLK
5
7F
330
7D
100
AcDbEntity
8
0
100
AcDbBlockEnd
0
BLOCK
5
81
330
80
100
AcDbEntity
8
0
100
AcDbBlockBegin
2
*D2
70
1
10
0
20
0
3
*D2
1

0
LINE
5
10F
100
AcDbEntity
8
Measurements
6
CONTINUOUS
62
7
370
0
100
AcDbLine
10
-9
20
11.062525
11
-9
21
14.5288009575
0
LINE
5
110
100
AcDbEntity
8
Measurements
6
CONTINUOUS
62
7
370
0
100
AcDbLine
10
-6.19
20
11.062525
11
-6.19
21
14.5288009575
0
LINE
5
111
100
AcDbEntity
8
Measurements
6
CONTINUOUS
62
7
370
0
100
AcDbLine
10
-9
20
14.3488009575
11
-8.015
21
14.3488009575
0
SOLID
5
112
100
AcDbEntity
8
Measurements
6
CONTINUOUS
62
7
370
0
100
AcDbTrace
10
-9
20
14.3488009575
30
0
11
-8.82
21
14.3787734529
31
0
12
-8.82
22
14.3188284621
32
0
13
-8.82
23
14.3188284621
33
0
0
SOLID
5
113
100
AcDbEntity
8
Measurements
6
CONTINUOUS
62
7
370
0
100
AcDbTrace
10
-6.19
20
14.3488009575
30
0
11
-6.37
21
14.3188284621
31
0
12
-6.37
22
14.3787734529
32
0
13
-6.37
23
14.3787734529
33
0
0
LINE
5
114
100
AcDbEntity
8
Measurements
6
CONTINUOUS
62
7
370
0
100
AcDbLine
10
-7.175
20
14.3488009575
11
-6.19
21
14.3488009575
0
MTEXT
5
115
100
AcDbEntity
8
Measurements
6
CONTINUOUS
62
7
370
0
100
AcDbMText
10
-7.595
20
14.3488009575
30
0
40
0.18
41
0.66
71
5
72
1
1
2.8100
7
standard
210
0
220
0
230
1
50
0
73
2
44
1
0
ENDBLK
5
82
330
80
100
AcDbEntity
8
0
100
AcDbBlockEnd
0
BLOCK
5
84
330
83
100
AcDbEntity
8
0
100
AcDbBlockBegin
2
*D3
70
1
10
0
20
0
3
*D3
1

0
LINE
5
116
100
AcDbEntity
8
Measurements
6
CONTINUOUS
62
7
370
0
100
AcDbLine
10
-11
20
11.062525
11
-11
21
14.5288009575
0
LINE
5
117
100
AcDbEntity
8
Measurements
6
CONTINUOUS
62
7
370
0
100
AcDbLine
10
-13.81
20
11.062525
11
-13.81
21
14.5288009575
0
LINE
5
118
100
AcDbEntity
8
Measurements
6
CONTINUOUS
62
7
370
0
100
AcDbLine
10
-11
20
14.3488009575
11
-11.985
21
14.3488009575
0
SOLID
5
119
100
AcDbEntity
8
Measurements
6
CONTINUOUS
62
7
370
0
100
AcDbTrace
10
-11
20
14.3488009575
30
0
11
-11.18
21
14.3188284621
31
0
12
-11.18
22
14.3787734529
32
0
13
-11.18
23
14.3787734529
33
0
0
SOLID
5
11A
100
AcDbEntity
8
Measurements
6
CONTINUOUS
62
7
370
0
100
AcDbTrace
10
-13.81
20
14.3488009575
30
0
11
-13.63
21
14.3787734529
31
0
12
-13.63
22
14.3188284621
32
0
13
-13.63
23
14.3188284621
33
0
0
LINE
5
11B
100
AcDbEntity
8
Measurements
6
CONTINUOUS
62
7
370
0
100
AcDbLine
10
-12.825
20
14.3488009575
11
-13.81
21
14.3488009575
0
MTEXT
5
11C
100
AcDbEntity
8
Measurements
6
CONTINUOUS
62
7
370
0
100
AcDbMText
10
-12.405
20
14.3488009575
30
0
40
0.18
41
0.66
71
5
72
1
1
2.8100
7
standard
210
0
220
0
230
1
50
0
73
2
44
1
0
ENDBLK
5
85
330
83
100
AcDbEntity
8
0
100
AcDbBlockEnd
0
BLOCK
5
87
330
86
100
AcDbEntity
8
0
100
AcDbBlockBegin
2
*D11
70
1
10
0
20
0
3
*D11
1

0
SOLID
5
11D
100
AcDbEntity
8
Measurements
6
CONTINUOUS
62
7
370
0
100
AcDbTrace
10
-9.21625
20
10.625025
30
0
11
-9.03625
21
10.6549974954
31
0
12
-9.03625
22
10.5950525046
32
0
13
-9.03625
23
10.5950525046
33
0
0
LINE
5
11E
100
AcDbEntity
8
Measurements
6
CONTINUOUS
62
7
370
0
100
AcDbLine
10
-9.375
20
10.625025
11
-8.19625
21
10.625025
0
MTEXT
5
11F
100
AcDbEntity
8
Measurements
6
CONTINUOUS
62
7
370
0
100
AcDbMText
10
-5.5098972041
20
10.625025
30
0
40
0.18
41
0.66
71
5
72
1
1
0.1587
7
standard
210
0
220
0
230
1
50
0
73
2
44
1
0
ENDBLK
5
88
330
86
100
AcDbEntity
8
0
100
AcDbBlockEnd
0
BLOCK
5
8A
330
89
100
AcDbEntity
8
0
100
AcDbBlockBegin
2
*D17
70
1
10
0
20
0
3
*D17
1

0
LINE
5
120
100
AcDbEntity
8
Measurements
6
CONTINUOUS
62
7
370
0
100
AcDbLine
10
0.9403125
20
13.8725
11
0.9403125
21
14.4370877854
0
LINE
5
121
100
AcDbEntity
8
Measurements
6
CONTINUOUS
62
7
370
0
100
AcDbLine
10
0.9911125
20
13.8725
11
0.9911125
21
14.4370877854
0
LINE
5
122
100
AcDbEntity
8
Measurements
6
CONTINUOUS
62
7
370
0
100
AcDbLine
10
0.5803125
20
14.2570877854
11
1.3511125
21
14.2570877854
0
SOLID
5
123
100
AcDbEntity
8
Measurements
6
CONTINUOUS
62
7
370
0
100
AcDbTrace
10
0.9403125
20
14.2570877854
30
0
11
0.7603125
21
14.22711529
31
0
12
0.7603125
22
14.2870602807
32
0
13
0.7603125
23
14.2870602807
33
0
0
SOLID
5
124
100
AcDbEntity
8
Measurements
6
CONTINUOUS
62
7
370
0
100
AcDbTrace
10
0.9911125
20
14.2570877854
30
0
11
1.1711125
21
14.2870602807
31
0
12
1.1711125
22
14.22711529
32
0
13
1.1711125
23
14.22711529
33
0
0
MTEXT
5
125
100
AcDbEntity
8
Measurements
6
CONTINUOUS
62
7
370
0
100
AcDbMText
10
1.4311125
20
14.2570877854
30
0
40
0.18
41
0.7
71
5
72
1
1
0.0508
7
standard
210
0
220
0
230
1
50
0
73
2
44
1
0
ENDBLK
5
8B
330
89
100
AcDbEntity
8
0
100
AcDbBlockEnd
0
BLOCK
5
8D
330
8C
100
AcDbEntity
8
0
100
AcDbBlockBegin
2
*D9
70
1
10
0
20
0
3
*D9
1

0
LINE
5
126
100
AcDbEntity
8
Measurements
6
CONTINUOUS
62
7
370
0
100
AcDbLine
10
-12.3425
20
12.405025
11
-11.4577294919
21
12.405025
0
LINE
5
127
100
AcDbEntity
8
Measurements
6
CONTINUOUS
62
7
370
0
100
AcDbLine
10
-12.3425
20
13.810025
11
-11.4577294919
21
13.810025
0
LINE
5
128
100
AcDbEntity
8
Measurements
6
CONTINUOUS
62
7
370
0
100
AcDbLine
10
-11.6377294919
20
12.405025
11
-11.6377294919
21
12.927525
0
SOLID
5
129
100
AcDbEntity
8
Measurements
6
CONTINUOUS
62
7
370
0
100
AcDbTrace
10
-11.6377294919
20
12.405025
30
0
11
-11.6677019873
21
12.585025
31
0
12
-11.6077569965
22
12.585025
32
0
13
-11.6077569965
23
12.585025
33
0
0
SOLID
5
12A
100
AcDbEntity
8
Measurements
6
CONTINUOUS
62
7
370
0
100
AcDbTrace
10
-11.6377294919
20
13.810025
30
0
11
-11.6077569965
21
13.630025
31
0
12
-11.6677019873
22
13.630025
32
0
13
-11.6677019873
23
13.630025
33
0
0
LINE
5
12B
100
AcDbEntity
8
Measurements
6
CONTINUOUS
62
7
370
0
100
AcDbLine
10
-11.6377294919
20
13.287525
11
-11.6377294919
21
13.810025
0
MTEXT
5
12C
100
AcDbEntity
8
Measurements
6
CONTINUOUS
62
7
370
0
100
AcDbMText
10
-11.6377294919
20
13.107525
30
0
40
0.18
41
0.68
71
5
72
1
1
1.4050
7
standard
210
0
220
0
230
1
50
0
73
2
44
1
0
ENDBLK
5
8E
330
8C
100
AcDbEntity
8
0
100
AcDbBlockEnd
0
BLOCK
5
90
330
8F
100
AcDbEntity
8
0
100
AcDbBlockBegin
2
*D6
70
1
10
0
20
0
3
*D6
1

0
LINE
5
12D
100
AcDbEntity
8
Measurements
6
CONTINUOUS
62
7
370
0
100
AcDbLine
10
-13.42
20
13.357525
11
-14.6700754579
21
13.357525
0
LINE
5
12E
100
AcDbEntity
8
Measurements
6
CONTINUOUS
62
7
370
0
100
AcDbLine
10
-13.42
20
6.642525
11
-14.6700754579
21
6.642525
0
LINE
5
12F
100
AcDbEntity
8
Measurements
6
CONTINUOUS
62
7
370
0
100
AcDbLine
10
-14.4900754579
20
13.357525
11
-14.4900754579
21
10.180025
0
SOLID
5
130
100
AcDbEntity
8
Measurements
6
CONTINUOUS
62
7
370
0
100
AcDbTrace
10
-14.4900754579
20
13.357525
30
0
11
-14.4601029626
21
13.177525
31
0
12
-14.5200479533
22
13.177525
32
0
13
-14.5200479533
23
13.177525
33
0
0
SOLID
5
131
100
AcDbEntity
8
Measurements
6
CONTINUOUS
62
7
370
0
100
AcDbTrace
10
-14.4900754579
20
6.642525
30
0
11
-14.5200479533
21
6.822525
31
0
12
-14.4601029626
22
6.822525
32
0
13
-14.4601029626
23
6.822525
33
0
0
LINE
5
132
100
AcDbEntity
8
Measurements
6
CONTINUOUS
62
7
370
0
100
AcDbLine
10
-14.4900754579
20
9.820025
11
-14.4900754579
21
6.642525
0
MTEXT
5
133
100
AcDbEntity
8
Measurements
6
CONTINUOUS
62
7
370
0
100
AcDbMText
10
-14.4900754579
20
10.000025
30
0
40
0.18
41
0.66
71
5
72
1
1
6.7150
7
standard
210
0
220
0
230
1
50
0
73
2
44
1
0
ENDBLK
5
91
330
8F
100
AcDbEntity
8
0
100
AcDbBlockEnd
0
BLOCK
5
93
330
92
100
AcDbEntity
8
0
100
AcDbBlockBegin
2
*D5
70
1
10
0
20
0
3
*D5
1

0
LINE
5
134
100
AcDbEntity
8
Measurements
6
CONTINUOUS
62
7
370
0
100
AcDbLine
10
-13.42
20
6.642525
11
-15.1686509159
21
6.642525
0
LINE
5
135
100
AcDbEntity
8
Measurements
6
CONTINUOUS
62
7
370
0
100
AcDbLine
10
-13.42
20
6.190025
11
-15.1686509159
21
6.190025
0
LINE
5
136
100
AcDbEntity
8
Measurements
6
CONTINUOUS
62
7
370
0
100
AcDbLine
10
-14.9886509159
20
6.642525
11
-14.9886509159
21
6.596275
0
SOLID
5
137
100
AcDbEntity
8
Measurements
6
CONTINUOUS
62
7
370
0
100
AcDbTrace
10
-14.9886509159
20
6.642525
30
0
11
-14.9586784205
21
6.462525
31
0
12
-15.0186234112
22
6.462525
32
0
13
-15.0186234112
23
6.462525
33
0
0
SOLID
5
138
100
AcDbEntity
8
Measurements
6
CONTINUOUS
62
7
370
0
100
AcDbTrace
10
-14.9886509159
20
6.190025
30
0
11
-15.0186234112
21
6.370025
31
0
12
-14.9586784205
22
6.370025
32
0
13
-14.9586784205
23
6.370025
33
0
0
LINE
5
139
100
AcDbEntity
8
Measurements
6
CONTINUOUS
62
7
370
0
100
AcDbLine
10
-14.9886509159
20
6.236275
11
-14.9886509159
21
6.190025
0
MTEXT
5
13A
100
AcDbEntity
8
Measurements
6
CONTINUOUS
62
7
370
0
100
AcDbMText
10
-14.3124009159
20
6.416275
30
0
40
0.18
41
0.72
71
5
72
1
1
0.4525
7
standard
210
0
220
0
230
1
50
0
73
2
44
1
0
ENDBLK
5
94
330
92
100
AcDbEntity
8
0
100
AcDbBlockEnd
0
BLOCK
5
96
330
95
100
AcDbEntity
8
0
100
AcDbBlockBegin
2
*D14
70
1
10
0
20
0
3
*D14
1

0
LINE
5
13B
100
AcDbEntity
8
Measurements
6
CONTINUOUS
62
7
370
0
100
AcDbLine
10
-6.19
20
6.127525
11
-6.19
21
5.38853855243
0
LINE
5
13C
100
AcDbEntity
8
Measurements
6
CONTINUOUS
62
7
370
0
100
AcDbLine
10
-9.3496
20
6.127525
11
-9.3496
21
5.38853855243
0
LINE
5
13D
100
AcDbEntity
8
Measurements
6
CONTINUOUS
62
7
370
0
100
AcDbLine
10
-6.19
20
5.56853855243
11
-7.3498
21
5.56853855243
0
SOLID
5
13E
100
AcDbEntity
8
Measurements
6
CONTINUOUS
62
7
370
0
100
AcDbTrace
10
-6.19
20
5.56853855243
30
0
11
-6.37
21
5.53856605707
31
0
12
-6.37
22
5.59851104779
32
0
13
-6.37
23
5.59851104779
33
0
0
SOLID
5
13F
100
AcDbEntity
8
Measurements
6
CONTINUOUS
62
7
370
0
100
AcDbTrace
10
-9.3496
20
5.56853855243
30
0
11
-9.1696
21
5.59851104779
31
0
12
-9.1696
22
5.53856605707
32
0
13
-9.1696
23
5.53856605707
33
0
0
LINE
5
140
100
AcDbEntity
8
Measurements
6
CONTINUOUS
62
7
370
0
100
AcDbLine
10
-8.1898
20
5.56853855243
11
-9.3496
21
5.56853855243
0
MTEXT
5
141
100
AcDbEntity
8
Measurements
6
CONTINUOUS
62
7
370
0
100
AcDbMText
10
-7.7698
20
5.56853855243
30
0
40
0.18
41
0.66
71
5
72
1
1
3.1596
7
standard
210
0
220
0
230
1
50
0
73
2
44
1
0
ENDBLK
5
97
330
95
100
AcDbEntity
8
0
100
AcDbBlockEnd
0
BLOCK
5
99
330
98
100
AcDbEntity
8
0
100
AcDbBlockBegin
2
*D7
70
1
10
0
20
0
3
*D7
1

0
LINE
5
142
100
AcDbEntity
8
Measurements
6
CONTINUOUS
62
7
370
0
100
AcDbLine
10
-13.8725
20
13.810025
11
-15.1460754579
21
13.810025
0
LINE
5
143
100
AcDbEntity
8
Measurements
6
CONTINUOUS
62
7
370
0
100
AcDbLine
10
-13.8725
20
13.357525
11
-15.1460754579
21
13.357525
0
LINE
5
144
100
AcDbEntity
8
Measurements
6
CONTINUOUS
62
7
370
0
100
AcDbLine
10
-14.9660754579
20
13.810025
11
-14.9660754579
21
13.763775
0
SOLID
5
145
100
AcDbEntity
8
Measurements
6
CONTINUOUS
62
7
370
0
100
AcDbTrace
10
-14.9660754579
20
13.810025
30
0
11
-14.9361029626
21
13.630025
31
0
12
-14.9960479533
22
13.630025
32
0
13
-14.9960479533
23
13.630025
33
0
0
SOLID
5
146
100
AcDbEntity
8
Measurements
6
CONTINUOUS
62
7
370
0
100
AcDbTrace
10
-14.9660754579
20
13.357525
30
0
11
-14.9960479533
21
13.537525
31
0
12
-14.9361029626
22
13.537525
32
0
13
-14.9361029626
23
13.537525
33
0
0
LINE
5
147
100
AcDbEntity
8
Measurements
6
CONTINUOUS
62
7
370
0
100
AcDbLine
10
-14.9660754579
20
13.403775
11
-14.9660754579
21
13.357525
0
MTEXT
5
148
100
AcDbEntity
8
Measurements
6
CONTINUOUS
62
7
370
0
100
AcDbMText
10
-14.2898254579
20
13.583775
30
0
40
0.18
41
0.72
71
5
72
1
1
0.4525
7
standard
210
0
220
0
230
1
50
0
73
2
44
1
0
ENDBLK
5
9A
330
98
100
AcDbEntity
8
0
100
AcDbBlockEnd
0
BLOCK
5
9C
330
9B
100
AcDbEntity
8
0
100
AcDbBlockBegin
2
*D29
70
1
10
0
20
0
3
*D29
1

0
LINE
5
149
100
AcDbEntity
8
Measurements
6
CONTINUOUS
62
7
370
0
100
AcDbLine
10
12.6328231433
20
15.114803616
11
12.6328231433
21
15.6005297602
0
LINE
5
14A
100
AcDbEntity
8
Measurements
6
CONTINUOUS
62
7
370
0
100
AcDbLine
10
13.2728231433
20
15.114803616
11
13.2728231433
21
15.6005297602
0
LINE
5
14B
100
AcDbEntity
8
Measurements
6
CONTINUOUS
62
7
370
0
100
AcDbLine
10
12.6328231433
20
15.4205297602
11
13.2728231433
21
15.4205297602
0
SOLID
5
14C
100
AcDbEntity
8
Measurements
6
CONTINUOUS
62
7
370
0
100
AcDbTrace
10
12.6328231433
20
15.4205297602
30
0
11
12.8128231433
21
15.4505022555
31
0
12
12.8128231433
22
15.3905572648
32
0
13
12.8128231433
23
15.3905572648
33
0
0
SOLID
5
14D
100
AcDbEntity
8
Measurements
6
CONTINUOUS
62
7
370
0
100
AcDbTrace
10
13.2728231433
20
15.4205297602
30
0
11
13.0928231433
21
15.3905572648
31
0
12
13.0928231433
22
15.4505022555
32
0
13
13.0928231433
23
15.4505022555
33
0
0
MTEXT
5
14E
100
AcDbEntity
8
Measurements
6
CONTINUOUS
62
7
370
0
100
AcDbMText
10
13.7228231433
20
15.4205297602
30
0
40
0.18
41
0.72
71
5
72
1
1
0.6400
7
standard
210
0
220
0
230
1
50
0
73
2
44
1
0
ENDBLK
5
9D
330
9B
100
AcDbEntity
8
0
100
AcDbBlockEnd
0
BLOCK
5
9F
330
9E
100
AcDbEntity
8
0
100
AcDbBlockBegin
2
*D23
70
1
10
0
20
0
3
*D23
1

0
LINE
5
14F
100
AcDbEntity
8
Measurements
6
CONTINUOUS
62
7
370
0
100
AcDbLine
10
13.3353231433
20
8.55230361596
11
13.9177198257
21
8.55230361596
0
LINE
5
150
100
AcDbEntity
8
Measurements
6
CONTINUOUS
62
7
370
0
100
AcDbLine
10
13.3353231433
20
0.94769638404
11
13.9177198257
21
0.94769638404
0
LINE
5
151
100
AcDbEntity
8
Measurements
6
CONTINUOUS
62
7
370
0
100
AcDbLine
10
13.7377198257
20
8.55230361596
11
13.7377198257
21
0.94769638404
0
SOLID
5
152
100
AcDbEntity
8
Measurements
6
CONTINUOUS
62
7
370
0
100
AcDbTrace
10
13.7377198257
20
8.55230361596
30
0
11
13.7676923211
21
8.37230361596
31
0
12
13.7077473303
22
8.37230361596
32
0
13
13.7077473303
23
8.37230361596
33
0
0
SOLID
5
153
100
AcDbEntity
8
Measurements
6
CONTINUOUS
62
7
370
0
100
AcDbTrace
10
13.7377198257
20
0.94769638404
30
0
11
13.7077473303
21
1.12769638404
31
0
12
13.7676923211
22
1.12769638404
32
0
13
13.7676923211
23
1.12769638404
33
0
0
MTEXT
5
154
100
AcDbEntity
8
Measurements
6
CONTINUOUS
62
7
370
0
100
AcDbMText
10
2.08566729461
20
-4.44142853568
30
0
40
0.18
41
0.72
71
5
72
1
1
7.6046
7
standard
210
0
220
0
230
1
50
0
73
2
44
1
0
ENDBLK
5
A0
330
9E
100
AcDbEntity
8
0
100
AcDbBlockEnd
0
BLOCK
5
A2
330
A1
100
AcDbEntity
8
0
100
AcDbBlockBegin
2
*D26
70
1
10
0
20
0
3
*D26
1

0
LINE
5
155
100
AcDbEntity
8
Measurements
6
CONTINUOUS
62
7
370
0
100
AcDbLine
10
1.7221875
20
8.995025
11
1.7221875
21
8.36568978468
0
LINE
5
156
100
AcDbEntity
8
Measurements
6
CONTINUOUS
62
7
370
0
100
AcDbLine
10
3.3096875
20
8.995025
11
3.3096875
21
8.36568978468
0
LINE
5
157
100
AcDbEntity
8
Measurements
6
CONTINUOUS
62
7
370
0
100
AcDbLine
10
1.7221875
20
8.54568978468
11
2.0959375
21
8.54568978468
0
SOLID
5
158
100
AcDbEntity
8
Measurements
6
CONTINUOUS
62
7
370
0
100
AcDbTrace
10
1.7221875
20
8.54568978468
30
0
11
1.9021875
21
8.57566228004
31
0
12
1.9021875
22
8.51571728932
32
0
13
1.9021875
23
8.51571728932
33
0
0
SOLID
5
159
100
AcDbEntity
8
Measurements
6
CONTINUOUS
62
7
370
0
100
AcDbTrace
10
3.3096875
20
8.54568978468
30
0
11
3.1296875
21
8.51571728932
31
0
12
3.1296875
22
8.57566228004
32
0
13
3.1296875
23
8.57566228004
33
0
0
LINE
5
15A
100
AcDbEntity
8
Measurements
6
CONTINUOUS
62
7
370
0
100
AcDbLine
10
2.9359375
20
8.54568978468
11
3.3096875
21
8.54568978468
0
MTEXT
5
15B
100
AcDbEntity
8
Measurements
6
CONTINUOUS
62
7
370
0
100
AcDbMText
10
2.5159375
20
8.54568978468
30
0
40
0.18
41
0.66
71
5
72
1
1
1.5875
7
standard
210
0
220
0
230
1
50
0
73
2
44
1
0
ENDBLK
5
A3
330
A1
100
AcDbEntity
8
0
100
AcDbBlockEnd
0
BLOCK
5
A5
330
A4
100
AcDbEntity
8
0
100
AcDbBlockBegin
2
*D28
70
1
10
0
20
0
3
*D28
1

0
LINE
5
15C
100
AcDbEntity
8
Measurements
6
CONTINUOUS
62
7
370
0
100
AcDbLine
10
12.9212303752
20
0.88519638404
11
12.9212303752
21
0.195721966244
0
LINE
5
15D
100
AcDbEntity
8
Measurements
6
CONTINUOUS
62
7
370
0
100
AcDbLine
10
12.9720303752
20
0.88519638404
11
12.9720303752
21
0.195721966244
0
LINE
5
15E
100
AcDbEntity
8
Measurements
6
CONTINUOUS
62
7
370
0
100
AcDbLine
10
12.5612303752
20
0.375721966244
11
13.3320303752
21
0.375721966244
0
SOLID
5
15F
100
AcDbEntity
8
Measurements
6
CONTINUOUS
62
7
370
0
100
AcDbTrace
10
12.9212303752
20
0.375721966244
30
0
11
12.7412303752
21
0.345749470884
31
0
12
12.7412303752
22
0.405694461604
32
0
13
12.7412303752
23
0.405694461604
33
0
0
SOLID
5
160
100
AcDbEntity
8
Measurements
6
CONTINUOUS
62
7
370
0
100
AcDbTrace
10
12.9720303752
20
0.375721966244
30
0
11
13.1520303752
21
0.405694461604
31
0
12
13.1520303752
22
0.345749470884
32
0
13
13.1520303752
23
0.345749470884
33
0
0
MTEXT
5
161
100
AcDbEntity
8
Measurements
6
CONTINUOUS
62
7
370
0
100
AcDbMText
10
13.4120303752
20
0.375721966244
30
0
40
0.18
41
0.7
71
5
72
1
1
0.0508
7
standard
210
0
220
0
230
1
50
0
73
2
44
1
0
ENDBLK
5
A6
330
A4
100
AcDbEntity
8
0
100
AcDbBlockEnd
0
BLOCK
5
A8
330
A7
100
AcDbEntity
8
0
100
AcDbBlockBegin
2
*D10
70
1
10
0
20
0
3
*D10
1

0
SOLID
5
162
100
AcDbEntity
8
Measurements
6
CONTINUOUS
62
7
370
0
100
AcDbTrace
10
-7.2775
20
12.405025
30
0
11
-7.0975
21
12.4349974954
31
0
12
-7.0975
22
12.3750525046
32
0
13
-7.0975
23
12.3750525046
33
0
0
LINE
5
163
100
AcDbEntity
8
Measurements
6
CONTINUOUS
62
7
370
0
100
AcDbLine
10
-7.595
20
12.405025
11
-6.2575
21
12.405025
0
MTEXT
5
164
100
AcDbEntity
8
Measurements
6
CONTINUOUS
62
7
370
0
100
AcDbMText
10
-5.5098972041
20
12.405025
30
0
40
0.18
41
0.66
71
5
72
1
1
0.3175
7
standard
210
0
220
0
230
1
50
0
73
2
44
1
0
ENDBLK
5
A9
330
A7
100
AcDbEntity
8
0
100
AcDbBlockEnd
0
BLOCK
5
AB
330
AA
100
AcDbEntity
8
0
100
AcDbBlockBegin
2
*D20
70
1
10
0
20
0
3
*D20
1

0
LINE
5
165
100
AcDbEntity
8
Measurements
6
CONTINUOUS
62
7
370
0
100
AcDbLine
10
3.3721875
20
10.783775
11
4.1241875
21
10.783775
0
LINE
5
166
100
AcDbEntity
8
Measurements
6
CONTINUOUS
62
7
370
0
100
AcDbLine
10
3.3721875
20
10.466275
11
4.1241875
21
10.466275
0
LINE
5
167
100
AcDbEntity
8
Measurements
6
CONTINUOUS
62
7
370
0
100
AcDbLine
10
3.9441875
20
11.143775
11
3.9441875
21
10.805025
0
SOLID
5
168
100
AcDbEntity
8
Measurements
6
CONTINUOUS
62
7
370
0
100
AcDbTrace
10
3.9441875
20
10.783775
30
0
11
3.91421500464
21
10.963775
31
0
12
3.97415999536
22
10.963775
32
0
13
3.97415999536
23
10.963775
33
0
0
SOLID
5
169
100
AcDbEntity
8
Measurements
6
CONTINUOUS
62
7
370
0
100
AcDbTrace
10
3.9441875
20
10.466275
30
0
11
3.97415999536
21
10.286275
31
0
12
3.91421500464
22
10.286275
32
0
13
3.91421500464
23
10.286275
33
0
0
LINE
5
16A
100
AcDbEntity
8
Measurements
6
CONTINUOUS
62
7
370
0
100
AcDbLine
10
3.9441875
20
10.445025
11
3.9441875
21
10.106275
0
MTEXT
5
16B
100
AcDbEntity
8
Measurements
6
CONTINUOUS
62
7
370
0
100
AcDbMText
10
4.5229375
20
10.625025
30
0
40
0.18
41
0.66
71
5
72
1
1
0.3175
7
standard
210
0
220
0
230
1
50
0
73
2
44
1
0
ENDBLK
5
AC
330
AA
100
AcDbEntity
8
0
100
AcDbBlockEnd
0
BLOCK
5
AE
330
AD
100
AcDbEntity
8
0
100
AcDbBlockBegin
2
Cloud0
70
0
10
0
20
0
3
Cloud0
1

0
ELLIPSE
5
16C
100
AcDbEntity
8
Temp_Probe
6
ByBlock
62
0
370
-2
100
AcDbEllipse
10
-1.5314677707
20
0.482128742627
30
0
11
-1.60556583707
21
0
31
0
40
1
41
2.83660030678
42
4.69119074278
0
ELLIPSE
5
16D
100
AcDbEntity
8
Temp_Probe
6
ByBlock
62
0
370
-2
100
AcDbEllipse
10
-0.436751919792
20
-1.48041884501
30
0
11
-1.54349998254
21
0
31
0
40
1
41
2.57091757154
42
4.42550800754
0
ELLIPSE
5
16E
100
AcDbEntity
8
Temp_Probe
6
ByBlock
62
0
370
-2
100
AcDbEllipse
10
0.0680652342532
20
-3.70388316395
30
0
11
-1.60054843156
21
0
31
0
40
1
41
2.33865243013
42
4.19324286614
0
ELLIPSE
5
16F
100
AcDbEntity
8
Temp_Probe
6
ByBlock
62
0
370
-2
100
AcDbEllipse
10
0.243900422741
20
-5.96138010001
30
0
11
-1.44888646523
21
0
31
0
40
1
41
2.15554161287
42
4.01013204888
0
ELLIPSE
5
170
100
AcDbEntity
8
Temp_Probe
6
ByBlock
62
0
370
-2
100
AcDbEllipse
10
0.328981965557
20
-8.40605643027
30
0
11
-1.4281990058
21
0
31
0
40
1
41
2.33372636161
42
4.18831679761
0
ELLIPSE
5
171
100
AcDbEntity
8
Temp_Probe
6
ByBlock
62
0
370
-2
100
AcDbEllipse
10
0.516161359754
20
-10.6465370578
30
0
11
-1.44888646523
21
0
31
0
40
1
41
2.2730532583
42
4.12764369431
0
ELLIPSE
5
172
100
AcDbEntity
8
Temp_Probe
6
ByBlock
62
0
370
-2
100
AcDbEllipse
10
0.0510489256899
20
-12.0135138457
30
0
11
-1.42509820493
21
0
31
0
40
1
41
1.4711276743
42
3.32571811031
0
ELLIPSE
5
173
100
AcDbEntity
8
Temp_Probe
6
ByBlock
62
0
370
-2
100
AcDbEllipse
10
-0.587062645434
20
-13.502440845
30
0
11
-0.501347798995
21
0
31
0
40
1
41
1.42889927219
42
3.28348970819
0
ENDBLK
5
AF
330
AD
100
AcDbEntity
8
0
100
AcDbBlockEnd
0
BLOCK
5
B1
330
B0
100
AcDbEntity
8
0
100
AcDbBlockBegin
2
Cloud1
70
0
10
0
20
0
3
Cloud1
1

0
ELLIPSE
5
174
100
AcDbEntity
8
Temp_Probe
6
ByBlock
62
0
370
-2
100
AcDbEllipse
10
-0.66465630512
20
-0.802450904961
30
0
11
-1.04196711023
21
0
31
0
40
1
41
4.0206387431
42
5.87522917911
0
ELLIPSE
5
175
100
AcDbEntity
8
Temp_Probe
6
ByBlock
62
0
370
-2
100
AcDbEllipse
10
0.688972999209
20
-0.770028646175
30
0
11
-1.03326081391
21
0
31
0
40
1
41
3.58769820253
42
5.44228863854
0
ELLIPSE
5
176
100
AcDbEntity
8
Temp_Probe
6
ByBlock
62
0
370
-2
100
AcDbEllipse
10
1.34147095728
20
-1.30499591615
30
0
11
-1.019860755
21
0
31
0
40
1
41
2.58004473685
42
4.43463517285
0
ELLIPSE
5
177
100
AcDbEntity
8
Temp_Probe
6
ByBlock
62
0
370
-2
100
AcDbEllipse
10
1.54005729235
20
-2.66673078517
30
0
11
-1.05450250376
21
0
31
0
40
1
41
2.17585484557
42
4.03044528157
0
ELLIPSE
5
178
100
AcDbEntity
8
Temp_Probe
6
ByBlock
62
0
370
-2
100
AcDbEllipse
10
1.56437398644
20
-4.36889937146
30
0
11
-1.01400581958
21
0
31
0
40
1
41
2.25427612271
42
4.10886655871
0
ELLIPSE
5
179
100
AcDbEntity
8
Temp_Probe
6
ByBlock
62
0
370
-2
100
AcDbEllipse
10
1.53195172765
20
-5.9170622285
30
0
11
-1.01643264192
21
0
31
0
40
1
41
2.13446744988
42
3.98905788588
0
ELLIPSE
5
17A
100
AcDbEntity
8
Temp_Probe
6
ByBlock
62
0
370
-2
100
AcDbEllipse
10
1.50763503356
20
-7.66786420297
30
0
11
-1.05683633731
21
0
31
0
40
1
41
2.29106932686
42
4.14565976286
0
ELLIPSE
5
17B
100
AcDbEntity
8
Temp_Probe
6
ByBlock
62
0
370
-2
100
AcDbEllipse
10
1.75890753916
20
-9.39434948334
30
0
11
-1.03326081391
21
0
31
0
40
1
41
2.41169299544
42
4.26628343144
0
ELLIPSE
5
17C
100
AcDbEntity
8
Temp_Probe
6
ByBlock
62
0
370
-2
100
AcDbEllipse
10
1.9048077037
20
-10.9830401639
30
0
11
-1.09500149209
21
0
31
0
40
1
41
2.25131755146
42
4.10590798747
0
ELLIPSE
5
17D
100
AcDbEntity
8
Temp_Probe
6
ByBlock
62
0
370
-2
100
AcDbEllipse
10
1.79943536264
20
-12.555519715
30
0
11
-1.07303105168
21
0
31
0
40
1
41
2.02430914767
42
3.87889958367
0
ELLIPSE
5
17E
100
AcDbEntity
8
Temp_Probe
6
ByBlock
62
0
370
-2
100
AcDbEllipse
10
1.48331833947
20
-14.1968965661
30
0
11
-1.03742520601
21
0
31
0
40
1
41
1.99774713061
42
3.85233756662
0
ELLIPSE
5
17F
100
AcDbEntity
8
Temp_Probe
6
ByBlock
62
0
370
-2
100
AcDbEllipse
10
0.932139940107
20
-15.4694702234
30
0
11
-1.03425385673
21
0
31
0
40
1
41
1.60999192872
42
3.46458236473
0
ELLIPSE
5
180
100
AcDbEntity
8
Temp_Probe
6
ByBlock
62
0
370
-2
100
AcDbEllipse
10
0.198586335066
20
-15.8463789818
30
0
11
-1.0150177007
21
0
31
0
40
1
41
0.583572953672
42
2.43816338968
0
ELLIPSE
5
181
100
AcDbEntity
8
Temp_Probe
6
ByBlock
62
0
370
-2
100
AcDbEllipse
10
-0.891612116624
20
-15.4127312705
30
0
11
-1.02227367814
21
0
31
0
40
1
41
6.23956220583
42
8.09415264183
0
ELLIPSE
5
182
100
AcDbEntity
8
Temp_Probe
6
ByBlock
62
0
370
-2
100
AcDbEllipse
10
-1.25636252797
20
-14.5940692362
30
0
11
-1.0150177007
21
0
31
0
40
1
41
5.29596193406
42
7.15055237006
0
ELLIPSE
5
183
100
AcDbEntity
8
Temp_Probe
6
ByBlock
62
0
370
-2
100
AcDbEllipse
10
-1.01724836942
20
-12.648733709
30
0
11
-1.35783330148
21
0
31
0
40
1
41
5.37081435417
42
7.22540479017
0
ELLIPSE
5
184
100
AcDbEntity
8
Temp_Probe
6
ByBlock
62
0
370
-2
100
AcDbEllipse
10
-1.25636252797
20
-10.75203157
30
0
11
-1.01339820593
21
0
31
0
40
1
41
5.37588742315
42
7.23047785915
0
ELLIPSE
5
185
100
AcDbEntity
8
Temp_Probe
6
ByBlock
62
0
370
-2
100
AcDbEllipse
10
-1.15099018691
20
-9.08228524252
30
0
11
-1.13640624095
21
0
31
0
40
1
41
5.30236982072
42
7.15696025672
0
ELLIPSE
5
186
100
AcDbEntity
8
Temp_Probe
6
ByBlock
62
0
370
-2
100
AcDbEllipse
10
-1.06182897525
20
-7.31121935632
30
0
11
-1.09724918824
21
0
31
0
40
1
41
5.28195105152
42
7.13654148752
0
ELLIPSE
5
187
100
AcDbEntity
8
Temp_Probe
6
ByBlock
62
0
370
-2
100
AcDbEllipse
10
-1.00509002238
20
-5.55636459951
30
0
11
-1.05391823785
21
0
31
0
40
1
41
5.33666169008
42
7.19125212608
0
ELLIPSE
5
188
100
AcDbEntity
8
Temp_Probe
6
ByBlock
62
0
370
-2
100
AcDbEllipse
10
-0.996984457679
20
-3.9028294014
30
0
11
-1.01339820593
21
0
31
0
40
1
41
5.3358927552
42
7.19048319121
0
ELLIPSE
5
189
100
AcDbEntity
8
Temp_Probe
6
ByBlock
62
0
370
-2
100
AcDbEllipse
10
-0.984826110635
20
-2.2411886386
30
0
11
-1.03365814552
21
0
31
0
40
1
41
5.37549542004
42
7.23008585604
0
ELLIPSE
5
18A
100
AcDbEntity
8
Temp_Probe
6
ByBlock
62
0
370
-2
100
AcDbEllipse
10
-1.23204583388
20
-0.907823246017
30
0
11
-0.648445175726
21
0
31
0
40
1
41
5.35589008918
42
7.21048052518
0
ENDBLK
5
B2
330
B0
100
AcDbEntity
8
0
100
AcDbBlockEnd
0
ENDSEC
0
SECTION
2
ENTITIES
0
CIRCLE
5
18B
100
AcDbEntity
8
PTFE_B-01a
6
ByLayer
62
2
370
0
100
AcDbCircle
10
-10.625
20
9.375025
40
0.15875
0
CIRCLE
5
18C
100
AcDbEntity
8
PTFE_B-01a
6
ByLayer
62
2
370
0
100
AcDbCircle
10
-9.375
20
10.625025
40
0.15875
0
CIRCLE
5
18D
100
AcDbEntity
8
PTFE_B-01a
6
ByLayer
62
253
420
10066329
370
0
100
AcDbCircle
10
-7.595
20
12.405025
40
0.3175
0
CIRCLE
5
18E
100
AcDbEntity
8
PTFE_B-01a
6
ByLayer
62
253
420
10066329
370
0
100
AcDbCircle
10
-7.595
20
7.595025
40
0.3175
0
CIRCLE
5
18F
100
AcDbEntity
8
PTFE_B-01a
6
ByLayer
62
253
420
10066329
370
0
100
AcDbCircle
10
-12.405
20
12.405025
40
0.3175
0
CIRCLE
5
190
100
AcDbEntity
8
PTFE_B-01a
6
ByLayer
62
253
420
10066329
370
0
100
AcDbCircle
10
-12.405
20
7.595025
40
0.3175
0
CIRCLE
5
191
100
AcDbEntity
8
PTFE_B-01a
6
ByLayer
62
1
370
0
100
AcDbCircle
10
-7.595
20
12.405025
40
0.3175
0
CIRCLE
5
192
100
AcDbEntity
8
PTFE_B-01a
6
ByLayer
62
1
370
0
100
AcDbCircle
10
-12.405
20
12.405025
40
0.3175
0
CIRCLE
5
193
100
AcDbEntity
8
PTFE_B-01a
6
ByLayer
62
1
370
0
100
AcDbCircle
10
-12.405
20
7.595025
40
0.3175
0
CIRCLE
5
194
100
AcDbEntity
8
PTFE_B-01a
6
ByLayer
62
1
370
0
100
AcDbCircle
10
-7.595
20
7.595025
40
0.3175
0
LWPOLYLINE
5
195
100
AcDbEntity
8
Temp_Probe
6
ByLayer
62
256
370
-1
100
AcDbPolyline
90
4
70
1
43
0
10
12.9212303752
20
8.56769638404
10
12.9720303752
20
8.56769638404
10
12.9720303752
20
0.94769638404
10
12.9212303752
20
0.94769638404
0
LWPOLYLINE
5
196
100
AcDbEntity
8
Temp_Probe
6
ByLayer
62
251
420
6710886
370
-1
100
AcDbPolyline
90
4
70
1
43
0
10
12.6328231433
20
8.55230361596
10
13.2728231433
20
8.55230361596
10
13.2728231433
20
15.052303616
10
12.6328231433
20
15.052303616
0
MTEXT
5
197
100
AcDbEntity
8
Temp_Probe
6
ByLayer
62
256
370
-1
100
AcDbMText
10
12.8124147043
20
11.4705660792
30
0
40
0.580823332294
41
13.617080346
71
1
72
5
1
{\c-2;\H0.23790523690773135;Prob}
7
standard 360
210
0
220
0
230
1
50
90
73
1
44
1
0
LWPOLYLINE
5
198
100
AcDbEntity
8
Temp_Probe
6
ByLayer
62
256
370
-1
100
AcDbPolyline
90
4
70
1
43
0
10
17.0787696248
20
7.43230361596
10
17.0279696248
20
7.43230361596
10
17.0279696248
20
15.052303616
10
17.0787696248
20
15.052303616
0
LWPOLYLINE
5
199
100
AcDbEntity
8
Temp_Probe
6
ByLayer
62
251
370
-1
100
AcDbPolyline
90
4
70
1
43
0
10
17.3671768567
20
7.44769638404
10
16.7271768567
20
7.44769638404
10
16.7271768567
20
0.94769638404
10
17.3671768567
20
0.94769638404
0
MTEXT
5
19A
100
AcDbEntity
8
Temp_Probe
6
ByLayer
62
256
370
-1
100
AcDbMText
10
17.1875852957
20
4.52943392078
30
0
40
0.580823332294
41
13.617080346
71
1
72
5
1
{\c-2;\H0.23790523690773135;Prob}
7
standard 360
210
0
220
0
230
1
50
-90
73
1
44
1
0
LWPOLYLINE
5
19B
100
AcDbEntity
8
PTFE_B-01a
6
ByLayer
62
5
370
0
100
AcDbPolyline
90
2
70
0
43
0
10
-10.625
20
9.533775
10
-10.6504
20
9.533775
0
LWPOLYLINE
5
19C
100
AcDbEntity
8
PTFE_B-01a
6
ByLayer
62
5
370
0
100
AcDbPolyline
90
2
70
0
43
0
10
-10.625
20
9.533775
10
-10.5996
20
9.533775
0
LWPOLYLINE
5
19D
100
AcDbEntity
8
PTFE_B-01a
6
CONTINUOUS
62
5
370
0
100
AcDbPolyline
90
2
70
0
43
0
10
-10.6504
20
9.533775
10
-10.6504
20
13.810025
0
LWPOLYLINE
5
19E
100
AcDbEntity
8
PTFE_B-01a
6
CONTINUOUS
62
5
370
0
100
AcDbPolyline
90
2
70
0
43
0
10
-10.5996
20
9.533775
10
-10.5996
20
13.810025
0
LWPOLYLINE
5
19F
100
AcDbEntity
8
PTFE_B-01a
6
ByLayer
62
5
370
0
100
AcDbPolyline
90
2
70
0
43
0
10
-9.375
20
10.466275
10
-9.4004
20
10.466275
0
LWPOLYLINE
5
1A0
100
AcDbEntity
8
PTFE_B-01a
6
ByLayer
62
5
370
0
100
AcDbPolyline
90
2
70
0
43
0
10
-9.375
20
10.466275
10
-9.3496
20
10.466275
0
LWPOLYLINE
5
1A1
100
AcDbEntity
8
PTFE_B-01a
6
CONTINUOUS
62
5
370
0
100
AcDbPolyline
90
2
70
0
43
0
10
-9.3496
20
10.466275
10
-9.3496
20
6.190025
0
LWPOLYLINE
5
1A2
100
AcDbEntity
8
PTFE_B-01a
6
CONTINUOUS
62
5
370
0
100
AcDbPolyline
90
2
70
0
43
0
10
-9.4004
20
10.466275
10
-9.4004
20
6.189975
0
LWPOLYLINE
5
1A3
100
AcDbEntity
8
PTFE_B-01b
6
ByLayer
62
7
370
-1
100
AcDbPolyline
90
4
70
1
43
0
10
0.7696875
20
13.81
10
3.3096875
20
13.81
10
3.3096875
20
6.19
10
0.7696875
20
6.19
0
LWPOLYLINE
5
1A4
100
AcDbEntity
8
PTFE_B-01b
6
CONTINUOUS
62
1
370
-1
100
AcDbPolyline
90
4
70
1
43
0
10
0.7696875
20
12.7225
10
3.3096875
20
12.7225
10
3.3096875
20
12.0875
10
0.7696875
20
12.0875
0
LWPOLYLINE
5
1A5
100
AcDbEntity
8
PTFE_B-01b
6
CONTINUOUS
62
1
370
-1
100
AcDbPolyline
90
4
70
1
43
0
10
0.7696875
20
7.2775
10
3.3096875
20
7.2775
10
3.3096875
20
7.9125
10
0.7696875
20
7.9125
0
LWPOLYLINE
5
1A6
100
AcDbEntity
8
Gasket_B-01b
6
ByLayer
62
251
420
6710886
370
-1
100
AcDbPolyline
90
4
70
1
43
0
10
0.6903125
20
6.642525
10
0.7696875
20
6.642525
10
0.7696875
20
13.357525
10
0.6903125
20
13.357525
0
LWPOLYLINE
5
1A7
100
AcDbEntity
8
Gasket_B-01b
6
CONTINUOUS
62
1
370
-1
100
AcDbPolyline
90
4
70
1
43
0
10
0.6903125
20
12.7225
10
0.7696875
20
12.7225
10
0.7696875
20
12.0875
10
0.6903125
20
12.0875
0
LWPOLYLINE
5
1A8
100
AcDbEntity
8
Gasket_B-01b
6
CONTINUOUS
62
1
370
-1
100
AcDbPolyline
90
4
70
1
43
0
10
0.6903125
20
7.2775
10
0.7696875
20
7.2775
10
0.7696875
20
7.9125
10
0.6903125
20
7.9125
0
LWPOLYLINE
5
1A9
100
AcDbEntity
8
PTFE_B-01b
6
CONTINUOUS
62
2
370
-1
100
AcDbPolyline
90
4
70
1
43
0
10
0.7696875
20
10.466275
10
3.3096875
20
10.466275
10
3.3096875
20
10.783775
10
0.7696875
20
10.783775
0
LWPOLYLINE
5
1AA
100
AcDbEntity
8
PTFE_B-01b
6
CONTINUOUS
62
2
370
-1
100
AcDbPolyline
90
4
70
1
43
0
10
0.7696875
20
9.216275
10
3.3096875
20
9.216275
10
3.3096875
20
9.533775
10
0.7696875
20
9.533775
0
LWPOLYLINE
5
1AB
100
AcDbEntity
8
PTFE_B-01b
6
CONTINUOUS
62
5
370
-1
100
AcDbPolyline
90
4
70
1
43
0
10
0.9403125
20
13.81
10
0.9911125
20
13.81
10
0.9911125
20
6.19
10
0.9403125
20
6.19
0
LWPOLYLINE
5
1AC
100
AcDbEntity
8
PTFE_B-02a
6
ByLayer
62
256
370
-1
100
AcDbPolyline
90
4
70
1
43
0
10
3.81
20
-1.189975
10
-3.81
20
-1.189975
10
-3.81
20
-8.809975
10
3.81
20
-8.809975
0
LWPOLYLINE
5
1AD
100
AcDbEntity
8
PTFE_B-02a
6
ByLayer
62
5
370
-1
100
AcDbPolyline
90
2
70
0
43
0
10
0.625
20
-5.466225
10
0.6504
20
-5.466225
0
LWPOLYLINE
5
1AE
100
AcDbEntity
8
PTFE_B-02a
6
ByLayer
62
5
370
-1
100
AcDbPolyline
90
2
70
0
43
0
10
0.625
20
-5.466225
10
0.5996
20
-5.466225
0
LWPOLYLINE
5
1AF
100
AcDbEntity
8
PTFE_B-02a
6
ByLayer
62
5
370
-1
100
AcDbPolyline
90
2
70
0
43
0
10
-0.625
20
-4.533725
10
-0.5996
20
-4.533725
0
LWPOLYLINE
5
1B0
100
AcDbEntity
8
PTFE_B-02a
6
ByLayer
62
5
370
-1
100
AcDbPolyline
90
2
70
0
43
0
10
-0.625
20
-4.533725
10
-0.6504
20
-4.533725
0
LWPOLYLINE
5
1B1
100
AcDbEntity
8
PTFE_B-02b
6
ByLayer
62
7
370
-1
100
AcDbPolyline
90
4
70
1
43
0
10
-11.7696875
20
-1.19
10
-14.3096875
20
-1.19
10
-14.3096875
20
-8.81
10
-11.7696875
20
-8.81
0
LWPOLYLINE
5
1B2
100
AcDbEntity
8
Gasket_B-02a
6
ByLayer
62
256
370
-1
100
AcDbPolyline
90
4
70
1
43
0
10
3.3575
20
-1.642475
10
-3.3575
20
-1.642475
10
-3.3575
20
-8.357475
10
3.3575
20
-8.357475
0
LWPOLYLINE
5
1B3
100
AcDbEntity
8
Gasket_B-02b
6
ByLayer
62
251
370
-1
100
AcDbPolyline
90
4
70
1
43
0
10
-11.6903125
20
-8.357475
10
-11.7696875
20
-8.357475
10
-11.7696875
20
-1.642475
10
-11.6903125
20
-1.642475
0
LWPOLYLINE
5
1B4
100
AcDbEntity
8
PTFE_B-02a
6
CONTINUOUS
62
5
370
-1
100
AcDbPolyline
90
2
70
0
43
0
10
0.5996
20
-5.466225
10
0.5996
20
-1.189975
0
LWPOLYLINE
5
1B5
100
AcDbEntity
8
PTFE_B-02a
6
CONTINUOUS
62
5
370
-1
100
AcDbPolyline
90
2
70
0
43
0
10
0.6504
20
-5.466225
10
0.6504
20
-1.189975
0
LWPOLYLINE
5
1B6
100
AcDbEntity
8
PTFE_B-02a
6
CONTINUOUS
62
5
370
-1
100
AcDbPolyline
90
2
70
0
43
0
10
-0.6504
20
-4.533725
10
-0.6504
20
-8.809975
0
LWPOLYLINE
5
1B7
100
AcDbEntity
8
PTFE_B-02a
6
CONTINUOUS
62
5
370
-1
100
AcDbPolyline
90
2
70
0
43
0
10
-0.5996
20
-4.533725
10
-0.5996
20
-8.810025
0
LWPOLYLINE
5
1B8
100
AcDbEntity
8
PTFE_B-02b
6
CONTINUOUS
62
1
370
-1
100
AcDbPolyline
90
4
70
1
43
0
10
-11.7696875
20
-2.2775
10
-14.3096875
20
-2.2775
10
-14.3096875
20
-2.9125
10
-11.7696875
20
-2.9125
0
LWPOLYLINE
5
1B9
100
AcDbEntity
8
PTFE_B-02b
6
CONTINUOUS
62
1
370
-1
100
AcDbPolyline
90
4
70
1
43
0
10
-11.7696875
20
-7.7225
10
-14.3096875
20
-7.7225
10
-14.3096875
20
-7.0875
10
-11.7696875
20
-7.0875
0
LWPOLYLINE
5
1BA
100
AcDbEntity
8
Gasket_B-02b
6
CONTINUOUS
62
1
370
-1
100
AcDbPolyline
90
4
70
1
43
0
10
-11.6903125
20
-2.2775
10
-11.7696875
20
-2.2775
10
-11.7696875
20
-2.9125
10
-11.6903125
20
-2.9125
0
LWPOLYLINE
5
1BB
100
AcDbEntity
8
Gasket_B-02b
6
CONTINUOUS
62
1
370
-1
100
AcDbPolyline
90
4
70
1
43
0
10
-11.6903125
20
-7.7225
10
-11.7696875
20
-7.7225
10
-11.7696875
20
-7.0875
10
-11.6903125
20
-7.0875
0
LWPOLYLINE
5
1BC
100
AcDbEntity
8
PTFE_B-02b
6
CONTINUOUS
62
2
370
-1
100
AcDbPolyline
90
4
70
1
43
0
10
-11.7696875
20
-4.533725
10
-14.3096875
20
-4.533725
10
-14.3096875
20
-4.216225
10
-11.7696875
20
-4.216225
0
LWPOLYLINE
5
1BD
100
AcDbEntity
8
PTFE_B-02b
6
CONTINUOUS
62
2
370
-1
100
AcDbPolyline
90
4
70
1
43
0
10
-11.7696875
20
-5.783725
10
-14.3096875
20
-5.783725
10
-14.3096875
20
-5.466225
10
-11.7696875
20
-5.466225
0
LWPOLYLINE
5
1BE
100
AcDbEntity
8
PTFE_B-02b
6
CONTINUOUS
62
5
370
-1
100
AcDbPolyline
90
4
70
1
43
0
10
-11.9403125
20
-1.19
10
-11.9911125
20
-1.19
10
-11.9911125
20
-8.81
10
-11.9403125
20
-8.81
0
CIRCLE
5
1BF
100
AcDbEntity
8
PTFE_B-02a
6
ByLayer
62
2
370
-1
100
AcDbCircle
10
0.625
20
-5.624975
40
0.15875
0
CIRCLE
5
1C0
100
AcDbEntity
8
PTFE_B-02a
6
ByLayer
62
2
370
-1
100
AcDbCircle
10
-0.625
20
-4.374975
40
0.15875
0
CIRCLE
5
1C1
100
AcDbEntity
8
Gasket_B-02a
6
ByLayer
62
253
370
-1
100
AcDbCircle
10
-2.405
20
-2.594975
40
0.3175
0
CIRCLE
5
1C2
100
AcDbEntity
8
Gasket_B-02a
6
ByLayer
62
253
370
-1
100
AcDbCircle
10
-2.405
20
-7.404975
40
0.3175
0
CIRCLE
5
1C3
100
AcDbEntity
8
Gasket_B-02a
6
ByLayer
62
253
370
-1
100
AcDbCircle
10
2.405
20
-2.594975
40
0.3175
0
CIRCLE
5
1C4
100
AcDbEntity
8
Gasket_B-02a
6
ByLayer
62
253
370
-1
100
AcDbCircle
10
2.405
20
-7.404975
40
0.3175
0
CIRCLE
5
1C5
100
AcDbEntity
8
PTFE_B-02a
6
ByLayer
62
1
370
-1
100
AcDbCircle
10
-2.405
20
-2.594975
40
0.3175
0
CIRCLE
5
1C6
100
AcDbEntity
8
PTFE_B-02a
6
ByLayer
62
1
370
-1
100
AcDbCircle
10
2.405
20
-2.594975
40
0.3175
0
CIRCLE
5
1C7
100
AcDbEntity
8
PTFE_B-02a
6
ByLayer
62
1
370
-1
100
AcDbCircle
10
2.405
20
-7.404975
40
0.3175
0
CIRCLE
5
1C8
100
AcDbEntity
8
PTFE_B-02a
6
ByLayer
62
1
370
-1
100
AcDbCircle
10
-2.405
20
-7.404975
40
0.3175
0
DIMENSION
5
1C9
100
AcDbEntity
8
Measurements
6
ByLayer
62
3
370
-1
100
AcDbDimension
2
*D1
10
-11
20
14.3488009575
30
0
11
-10
21
14.3488009575
31
0
70
33
71
5
72
0
3
Standard 360
53
0
210
0
220
0
230
1
100
AcDbAlignedDimension
13
-9
23
11.000025
33
0
14
-11
24
11.000025
34
0
0
DIMENSION
5
1CA
100
AcDbEntity
8
Measurements
6
ByLayer
62
3
370
-1
100
AcDbDimension
2
*D2
10
-6.19
20
14.3488009575
30
0
11
-7.595
21
14.3488009575
31
0
70
33
71
5
72
0
3
Standard 360
53
0
210
0
220
0
230
1
100
AcDbAlignedDimension
13
-9
23
11.000025
33
0
14
-6.19
24
11.000025
34
0
0
DIMENSION
5
1CB
100
AcDbEntity
8
Measurements
6
ByLayer
62
3
370
-1
100
AcDbDimension
2
*D3
10
-13.81
20
14.3488009575
30
0
11
-12.405
21
14.3488009575
31
0
70
33
71
5
72
0
3
Standard 360
53
0
210
0
220
0
230
1
100
AcDbAlignedDimension
13
-11
23
11.000025
33
0
14
-13.81
24
11.000025
34
0
0
DIMENSION
5
1CC
100
AcDbEntity
8
Measurements
6
ByLayer
62
3
370
-1
100
AcDbDimension
2
*D4
10
-6.19
20
15.3899983507
30
0
11
-10
21
15.3899983507
31
0
70
33
71
5
72
0
3
Standard 360
53
0
210
0
220
0
230
1
100
AcDbAlignedDimension
13
-13.81
23
13.810025
33
0
14
-6.19
24
13.810025
34
0
0
DIMENSION
5
1CD
100
AcDbEntity
8
Measurements
6
ByLayer
62
3
370
-1
100
AcDbDimension
2
*D5
10
-14.9886509159
20
6.190025
30
0
11
-14.9886509159
21
6.416275
31
0
70
33
71
5
72
0
3
Standard 360
53
0
210
0
220
0
230
1
100
AcDbAlignedDimension
13
-13.3575
23
6.642525
33
0
14
-13.3575
24
6.190025
34
0
0
DIMENSION
5
1CE
100
AcDbEntity
8
Measurements
6
ByLayer
62
3
370
-1
100
AcDbDimension
2
*D6
10
-14.4900754579
20
6.642525
30
0
11
-14.4900754579
21
10.000025
31
0
70
33
71
5
72
0
3
Standard 360
53
0
210
0
220
0
230
1
100
AcDbAlignedDimension
13
-13.3575
23
13.357525
33
0
14
-13.3575
24
6.642525
34
0
0
DIMENSION
5
1CF
100
AcDbEntity
8
Measurements
6
ByLayer
62
3
370
-1
100
AcDbDimension
2
*D7
10
-14.9660754579
20
13.357525
30
0
11
-14.9660754579
21
13.583775
31
0
70
33
71
5
72
0
3
Standard 360
53
0
210
0
220
0
230
1
100
AcDbAlignedDimension
13
-13.81
23
13.810025
33
0
14
-13.81
24
13.357525
34
0
0
DIMENSION
5
1D0
100
AcDbEntity
8
Measurements
6
ByLayer
62
3
370
-1
100
AcDbDimension
2
*D8
10
-13.81
20
11.158025
30
0
11
-13.1075
21
11.158025
31
0
70
33
71
5
72
0
3
Standard 360
53
0
210
0
220
0
230
1
100
AcDbAlignedDimension
13
-12.405
23
12.405025
33
0
14
-13.81
24
12.405025
34
0
0
DIMENSION
5
1D1
100
AcDbEntity
8
Measurements
6
ByLayer
62
3
370
-1
100
AcDbDimension
2
*D9
10
-11.6377294919
20
13.810025
30
0
11
-11.6377294919
21
13.107525
31
0
70
33
71
5
72
0
3
Standard 360
53
0
210
0
220
0
230
1
100
AcDbAlignedDimension
13
-12.405
23
12.405025
33
0
14
-12.405
24
13.810025
34
0
0
DIMENSION
5
1D2
100
AcDbEntity
8
Measurements
6
ByLayer
62
3
370
-1
100
AcDbDimension
2
*D10
10
-7.595
20
12.405025
30
0
11
-5.5098972041
21
12.405025
31
0
70
36
71
5
72
0
3
Standard 360
53
0
210
0
220
0
230
1
100
AcDbRadialDimension
15
-7.2775
25
12.405025
35
0
40
0
0
DIMENSION
5
1D3
100
AcDbEntity
8
Measurements
6
ByLayer
62
3
370
-1
100
AcDbDimension
2
*D11
10
-9.375
20
10.625025
30
0
11
-5.5098972041
21
10.625025
31
0
70
36
71
5
72
0
3
Standard 360
53
0
210
0
220
0
230
1
100
AcDbRadialDimension
15
-9.21625
25
10.625025
35
0
40
0
0
DIMENSION
5
1D4
100
AcDbEntity
8
Measurements
6
ByLayer
62
3
370
-1
100
AcDbDimension
2
*D12
10
-11.417728339
20
6.190025
30
0
11
-11.417728339
21
7.782525
31
0
70
33
71
5
72
0
3
Standard 360
53
0
210
0
220
0
230
1
100
AcDbAlignedDimension
13
-10.625
23
9.375025
33
0
14
-10.625
24
6.190025
34
0
0
DIMENSION
5
1D5
100
AcDbEntity
8
Measurements
6
ByLayer
62
3
370
-1
100
AcDbDimension
2
*D13
10
-13.81
20
8.5610169863
30
0
11
-12.2175
21
8.5610169863
31
0
70
33
71
5
72
0
3
Standard 360
53
0
210
0
220
0
230
1
100
AcDbAlignedDimension
13
-10.625
23
9.375025
33
0
14
-13.81
24
9.375025
34
0
0
DIMENSION
5
1D6
100
AcDbEntity
8
Measurements
6
ByLayer
62
3
370
-1
100
AcDbDimension
2
*D14
10
-9.3496
20
5.56853855243
30
0
11
-7.7698
21
5.56853855243
31
0
70
33
71
5
72
0
3
Standard 360
53
0
210
0
220
0
230
1
100
AcDbAlignedDimension
13
-6.19
23
6.190025
33
0
14
-9.3496
24
6.190025
34
0
0
DIMENSION
5
1D7
100
AcDbEntity
8
Measurements
6
ByLayer
62
3
370
-1
100
AcDbDimension
2
*D15
10
-9.39893814644
20
4.70473178355
30
0
11
-9.37353814644
21
4.70475678355
31
0
70
33
71
5
72
0
3
Standard 360
53
0
210
0
220
0
230
1
100
AcDbAlignedDimension
13
-9.3496
23
6.190025
33
0
14
-9.4004
24
6.189975
34
0
0
DIMENSION
5
1D8
100
AcDbEntity
8
Measurements
6
ByLayer
62
3
370
-1
100
AcDbDimension
2
*D16
10
-0.0722317670722
20
6.642525
30
0
11
-0.0722317670722
21
10.000025
31
0
70
33
71
5
72
0
3
Standard 360
53
0
210
0
220
0
230
1
100
AcDbAlignedDimension
13
0.6903125
23
13.357525
33
0
14
0.6903125
24
6.642525
34
0
0
DIMENSION
5
1D9
100
AcDbEntity
8
Measurements
6
ByLayer
62
3
370
-1
100
AcDbDimension
2
*D17
10
0.9911125
20
14.2570877854
30
0
11
0.9657125
21
14.2570877854
31
0
70
33
71
5
72
0
3
Standard 360
53
0
210
0
220
0
230
1
100
AcDbAlignedDimension
13
0.9403125
23
13.81
33
0
14
0.9911125
24
13.81
34
0
0
DIMENSION
5
1DA
100
AcDbEntity
8
Measurements
6
ByLayer
62
3
370
-1
100
AcDbDimension
2
*D18
10
0.9657125
20
5.61189646795
30
0
11
0.8677
21
5.61189646795
31
0
70
33
71
5
72
0
3
Standard 360
53
0
210
0
220
0
230
1
100
AcDbAlignedDimension
13
0.7696875
23
6.19
33
0
14
0.9657125
24
6.19
34
0
0
DIMENSION
5
1DB
100
AcDbEntity
8
Measurements
6
ByLayer
62
3
370
-1
100
AcDbDimension
2
*D19
10
3.9446875
20
12.0875
30
0
11
3.9446875
21
12.405
31
0
70
33
71
5
72
0
3
Standard 360
53
0
210
0
220
0
230
1
100
AcDbAlignedDimension
13
3.3096875
23
12.7225
33
0
14
3.3096875
24
12.0875
34
0
0
DIMENSION
5
1DC
100
AcDbEntity
8
Measurements
6
ByLayer
62
3
370
-1
100
AcDbDimension
2
*D20
10
3.9441875
20
10.466275
30
0
11
3.9441875
21
10.625025
31
0
70
33
71
5
72
0
3
Standard 360
53
0
210
0
220
0
230
1
100
AcDbAlignedDimension
13
3.3096875
23
10.783775
33
0
14
3.3096875
24
10.466275
34
0
0
DIMENSION
5
1DD
100
AcDbEntity
8
Measurements
6
ByLayer
62
3
370
-1
100
AcDbDimension
2
*D21
10
4.9172324409
20
6.19
30
0
11
4.9172324409
21
10
31
0
70
33
71
5
72
0
3
Standard 360
53
0
210
0
220
0
230
1
100
AcDbAlignedDimension
13
3.3096875
23
13.81
33
0
14
3.3096875
24
6.19
34
0
0
DIMENSION
5
1DE
100
AcDbEntity
8
Measurements
6
ByLayer
62
3
370
-1
100
AcDbDimension
2
*D22
10
3.3096875
20
15.0829364597
30
0
11
2.0396875
21
15.0829364597
31
0
70
33
71
5
72
0
3
Standard 360
53
0
210
0
220
0
230
1
100
AcDbAlignedDimension
13
0.7696875
23
13.81
33
0
14
3.3096875
24
13.81
34
0
0
MTEXT
5
1DF
100
AcDbEntity
8
Red_Text
6
ByLayer
62
256
370
-1
100
AcDbMText
10
-10.3503303382
20
2.58282868432
30
0
40
0.602544787747
41
12.3019560832
71
1
72
5
1
Copy of Block A but Mirrored
7
standard 360
210
0
220
0
230
1
50
0
73
1
44
1
0
MTEXT
5
1E0
100
AcDbEntity
8
Red_Text
6
ByLayer
62
256
370
-1
100
AcDbMText
10
-14.520143124
20
18.4526418238
30
0
40
0.602544787747
41
8.20130405545
71
1
72
5
1
Front View: Block-A
7
standard 360
210
0
220
0
230
1
50
0
73
1
44
1
0
MTEXT
5
1E1
100
AcDbEntity
8
Red_Text
6
ByLayer
62
256
370
-1
100
AcDbMText
10
-0.769170647793
20
18.4526418238
30
0
40
0.602544787747
41
7.66570856082
71
1
72
5
1
Side View: Block-A
7
standard 360
210
0
220
0
230
1
50
0
73
1
44
1
0
MTEXT
5
1E2
100
AcDbEntity
8
Red_Text
6
ByLayer
62
256
370
-1
100
AcDbMText
10
-14.9419244754
20
0.406425430791
30
0
40
0.602544787747
41
7.59875913996
71
1
72
5
1
Side View: Block-B
7
standard 360
210
0
220
0
230
1
50
0
73
1
44
1
0
MTEXT
5
1E3
100
AcDbEntity
8
Red_Text
6
ByLayer
62
256
370
-1
100
AcDbMText
10
-3.57417015049
20
0.406425430791
30
0
40
0.602544787747
41
8.13435463459
71
1
72
5
1
Front View: Block-B
7
standard 360
210
0
220
0
230
1
50
0
73
1
44
1
0
DIMENSION
5
1E4
100
AcDbEntity
8
Measurements
6
ByLayer
62
256
370
-1
100
AcDbDimension
2
*D23
10
13.7377198257
20
0.94769638404
30
0
11
2.08566729461
21
-4.44142853568
31
0
70
33
71
5
72
0
3
Standard 360
53
0
210
0
220
0
230
1
100
AcDbAlignedDimension
13
13.2728231433
23
8.55230361596
33
0
14
13.2728231433
24
0.94769638404
34
0
0
DIMENSION
5
1E5
100
AcDbEntity
8
Measurements
6
ByLayer
62
256
370
-1
100
AcDbDimension
2
*D24
10
13.7377198257
20
8.55230361596
30
0
11
2.08566729461
21
-4.44142853568
31
0
70
33
71
5
72
0
3
Standard 360
53
0
210
0
220
0
230
1
100
AcDbAlignedDimension
13
13.2728231433
23
15.052303616
33
0
14
13.2728231433
24
8.55230361596
34
0
0
MTEXT
5
1E6
100
AcDbEntity
8
Red_Text
6
ByLayer
62
256
370
-1
100
AcDbMText
10
10.3128644596
20
18.8084897249
30
0
40
0.602544787747
41
13.1722991741
71
1
72
5
1
Temperature Probes\PWill be inserted into blue holes
7
standard 360
210
0
220
0
230
1
50
0
73
1
44
1
0
LWPOLYLINE
5
1E7
100
AcDbEntity
8
0
6
ByLayer
62
256
370
-1
100
AcDbPolyline
90
4
70
1
43
0
10
-17
20
21
10
22
20
21
10
22
20
-11
10
-17
20
-11
0
MTEXT
5
1E8
100
AcDbEntity
8
0
6
ByLayer
62
256
370
-1
100
AcDbMText
10
6.5694417622
20
-4.61552889295
30
0
40
0.602544787747
41
15.9339620979
71
1
72
5
1
Benchtop Plate Heat Exchanger (bPHE)
7
standard 360
210
0
220
0
230
1
50
0
73
1
44
1
0
LWPOLYLINE
5
1E9
100
AcDbEntity
8
0
6
ByLayer
62
256
370
-1
100
AcDbPolyline
90
4
70
1
43
0
10
22
20
-11
10
6
20
-11
10
6
20
-6
10
22
20
-6
0
LWPOLYLINE
5
1EA
100
AcDbEntity
8
0
6
ByLayer
62
256
370
-1
100
AcDbPolyline
90
4
70
1
43
0
10
6
20
-6
10
22
20
-6
10
22
20
-4
10
6
20
-4
0
LWPOLYLINE
5
1EB
100
AcDbEntity
8
0
6
ByLayer
62
251
420
6710886
370
-1
100
AcDbPolyline
90
2
70
0
43
0
10
16.4780879347
20
-6
10
16.4780879347
20
-11
0
LWPOLYLINE
5
1EC
100
AcDbEntity
8
0
6
ByLayer
62
251
420
6710886
370
-1
100
AcDbPolyline
90
2
70
0
43
0
10
11.4649153007
20
-11
10
11.4649153007
20
-6
0
LWPOLYLINE
5
1ED
100
AcDbEntity
8
0
6
ByLayer
62
251
420
6710886
370
-1
100
AcDbPolyline
90
2
70
0
43
0
10
11.4649153007
20
-7.39667173345
10
22
20
-7.39667173345
0
LWPOLYLINE
5
1EE
100
AcDbEntity
8
0
6
ByLayer
62
251
420
6710886
370
-1
100
AcDbPolyline
90
2
70
0
43
0
10
11.4649153007
20
-7.97511472968
10
22
20
-7.97511472968
0
LWPOLYLINE
5
1EF
100
AcDbEntity
8
0
6
ByLayer
62
251
420
6710886
370
-1
100
AcDbPolyline
90
2
70
0
43
0
10
11.4649153007
20
-9.24768932141
10
22
20
-9.24768932141
0
LWPOLYLINE
5
1F0
100
AcDbEntity
8
PTFE_B-01a
6
ByLayer
62
7
370
0
100
AcDbPolyline
90
4
70
1
43
0
10
-13.81
20
13.810025
10
-6.19
20
13.810025
10
-6.19
20
6.190025
10
-13.81
20
6.190025
0
LWPOLYLINE
5
1F1
100
AcDbEntity
8
Gasket_B-01a
6
ByLayer
62
253
420
10066329
370
-1
100
AcDbPolyline
90
4
70
1
43
0
10
-13.3575
20
13.357525
10
-6.6425
20
13.357525
10
-6.6425
20
6.642525
10
-13.3575
20
6.642525
0
LWPOLYLINE
5
1F2
100
AcDbEntity
8
Gasket_B-01a
6
ByLayer
62
253
420
10066329
370
-1
100
AcDbPolyline
90
4
70
1
43
0
10
-11
20
11.000025
10
-9
20
11.000025
10
-9
20
9.000025
10
-11
20
9.000025
0
LWPOLYLINE
5
1F3
100
AcDbEntity
8
PTFE_B-02b
6
ByLayer
62
253
420
10066329
370
-1
100
AcDbPolyline
90
4
70
1
43
0
10
-1
20
-3.999975
10
1
20
-3.999975
10
1
20
-5.999975
10
-1
20
-5.999975
0
LWPOLYLINE
5
1F4
100
AcDbEntity
8
PTFE_B-01b
6
CONTINUOUS
62
251
420
6710886
370
-1
100
AcDbPolyline
90
4
70
1
43
0
10
3.3096875
20
10.942525
10
1.7221875
20
10.942525
10
1.7221875
20
10.307525
10
3.3096875
20
10.307525
0
LWPOLYLINE
5
1F5
100
AcDbEntity
8
PTFE_B-01b
6
CONTINUOUS
62
251
420
6710886
370
-1
100
AcDbPolyline
90
4
70
1
43
0
10
3.3096875
20
9.692525
10
1.7221875
20
9.692525
10
1.7221875
20
9.057525
10
3.3096875
20
9.057525
0
DIMENSION
5
1F6
100
AcDbEntity
8
Measurements
6
ByLayer
62
3
370
-1
100
AcDbDimension
2
*D25
10
3.9439375
20
9.057525
30
0
11
3.9439375
21
9.375025
31
0
70
33
71
5
72
0
3
Standard 360
53
0
210
0
220
0
230
1
100
AcDbAlignedDimension
13
3.3096875
23
9.692525
33
0
14
3.3096875
24
9.057525
34
0
0
DIMENSION
5
1F7
100
AcDbEntity
8
Measurements
6
ByLayer
62
3
370
-1
100
AcDbDimension
2
*D26
10
3.3096875
20
8.54568978468
30
0
11
2.5159375
21
8.54568978468
31
0
70
33
71
5
72
0
3
Standard 360
53
0
210
0
220
0
230
1
100
AcDbAlignedDimension
13
1.7221875
23
9.057525
33
0
14
3.3096875
24
9.057525
34
0
0
LWPOLYLINE
5
1F8
100
AcDbEntity
8
PTFE_B-02b
6
CONTINUOUS
62
251
420
6710886
370
-1
100
AcDbPolyline
90
4
70
1
43
0
10
-14.3096875
20
-4.057475
10
-12.7221875
20
-4.057475
10
-12.7221875
20
-4.692475
10
-14.3096875
20
-4.692475
0
LWPOLYLINE
5
1F9
100
AcDbEntity
8
PTFE_B-02b
6
CONTINUOUS
62
251
420
6710886
370
-1
100
AcDbPolyline
90
4
70
1
43
0
10
-14.3096875
20
-5.307475
10
-12.7221875
20
-5.307475
10
-12.7221875
20
-5.942475
10
-14.3096875
20
-5.942475
0
CIRCLE
5
1FA
100
AcDbEntity
8
PTFE_B-01a
6
CONTINUOUS
62
251
420
6710886
370
-1
100
AcDbCircle
10
-9.375
20
10.625025
40
0.3175
0
CIRCLE
5
1FB
100
AcDbEntity
8
PTFE_B-01a
6
CONTINUOUS
62
251
420
6710886
370
-1
100
AcDbCircle
10
-10.625
20
9.375025
40
0.3175
0
CIRCLE
5
1FC
100
AcDbEntity
8
PTFE_B-02a
6
CONTINUOUS
62
251
420
6710886
370
-1
100
AcDbCircle
10
-0.625
20
-4.374975
40
0.3175
0
CIRCLE
5
1FD
100
AcDbEntity
8
PTFE_B-02a
6
CONTINUOUS
62
251
420
6710886
370
-1
100
AcDbCircle
10
0.625
20
-5.624975
40
0.3175
0
DIMENSION
5
1FE
100
AcDbEntity
8
Measurements
6
ByLayer
62
3
370
-1
100
AcDbDimension
2
*D27
10
-10.625
20
9.375025
30
0
11
-6.6425
21
9.375025
31
0
70
36
71
5
72
0
3
Standard 360
53
0
210
0
220
0
230
1
100
AcDbRadialDimension
15
-10.3075
25
9.375025
35
0
40
0
0
CIRCLE
5
1FF
100
AcDbEntity
8
Gasket_B-01a
6
ByLayer
62
251
420
6710886
370
-1
100
AcDbCircle
10
-7.595
20
12.405025
40
0.3175
0
CIRCLE
5
200
100
AcDbEntity
8
Gasket_B-01a
6
ByLayer
62
251
420
6710886
370
-1
100
AcDbCircle
10
-7.595
20
7.595025
40
0.3175
0
CIRCLE
5
201
100
AcDbEntity
8
Gasket_B-01a
6
ByLayer
62
251
420
6710886
370
-1
100
AcDbCircle
10
-12.405
20
7.595025
40
0.3175
0
CIRCLE
5
202
100
AcDbEntity
8
Gasket_B-01a
6
ByLayer
62
251
420
6710886
370
-1
100
AcDbCircle
10
-12.405
20
12.405025
40
0.3175
0
DIMENSION
5
203
100
AcDbEntity
8
Measurements
6
ByLayer
62
3
370
-1
100
AcDbDimension
2
*D28
10
12.9720303752
20
0.375721966244
30
0
11
12.9466303752
21
0.375721966244
31
0
70
33
71
5
72
0
3
Standard 360
53
0
210
0
220
0
230
1
100
AcDbAlignedDimension
13
12.9212303752
23
0.94769638404
33
0
14
12.9720303752
24
0.94769638404
34
0
0
DIMENSION
5
204
100
AcDbEntity
8
Measurements
6
ByLayer
62
3
370
-1
100
AcDbDimension
2
*D29
10
13.2728231433
20
15.4205297602
30
0
11
12.9528231433
21
15.4205297602
31
0
70
33
71
5
72
0
3
Standard 360
53
0
210
0
220
0
230
1
100
AcDbAlignedDimension
13
12.6328231433
23
15.052303616
33
0
14
13.2728231433
24
15.052303616
34
0
0
MTEXT
5
205
100
AcDbEntity
8
0
6
ByLayer
62
256
370
-1
100
AcDbMText
10
16.8749926091
20
-6.83998406493
30
0
40
0.385628664158
41
5.96653278376
71
1
72
5
1
{\C7;Matthew Rothfuss\P(785)-263-6008\P02/25/2015\P03/03/2015}
7
standard 360
210
0
220
0
230
1
50
0
73
1
44
1
0
MTEXT
5
206
100
AcDbEntity
8
0
6
ByLayer
62
256
370
-1
100
AcDbMText
10
11.1932706535
20
-6.84314112875
30
0
40
0.385628664158
41
5.24883479381
71
3
72
5
1
{\C7;Created By:\PCell #:\PDate Made:\PDate Last Modified:}
7
standard 360
210
0
220
0
230
1
50
0
73
1
44
1
0
LWPOLYLINE
5
207
100
AcDbEntity
8
0
6
ByLayer
62
251
370
-1
100
AcDbPolyline
90
2
70
0
43
0
10
11.4649153007
20
-8.61189747053
10
22
20
-8.61189747053
0
LINE
5
208
100
AcDbEntity
8
test
6
ByLayer
62
256
370
-1
100
AcDbLine
10
-15
20
3
11
-15
21
6
0
LINE
5
209
100
AcDbEntity
8
test
6
ByLayer
62
256
370
-1
100
AcDbLine
10
-12
20
3
11
-12
21
6
0
CIRCLE
5
20A
100
AcDbEntity
8
test
6
ByLayer
62
256
370
-1
100
AcDbCircle
10
-14.5
20
5.5
40
0.125
0
CIRCLE
5
20B
100
AcDbEntity
8
test
6
ByLayer
62
256
370
-1
100
AcDbCircle
10
-12.5
20
5.5
40
0.125
0
CIRCLE
5
20C
100
AcDbEntity
8
test
6
ByLayer
62
256
370
-1
100
AcDbCircle
10
-12.5
20
3.5
40
0.125
0
CIRCLE
5
20D
100
AcDbEntity
8
test
6
ByLayer
62
256
370
-1
100
AcDbCircle
10
-14.5
20
3.5
40
0.125
0
LINE
5
20E
100
AcDbEntity
8
test
6
ByLayer
62
256
370
-1
100
AcDbLine
10
-15
20
6
11
-12
21
6
0
LINE
5
20F
100
AcDbEntity
8
test
6
ByLayer
62
256
370
-1
100
AcDbLine
10
-15
20
3
11
-12
21
3
0
CIRCLE
5
210
100
AcDbEntity
8
test
6
ByLayer
62
256
370
-1
100
AcDbCircle
10
-13.7
20
4.7
40
0.125
0
CIRCLE
5
211
100
AcDbEntity
8
test
6
ByLayer
62
256
370
-1
100
AcDbCircle
10
-13.3
20
4.3
40
0.125
0
LINE
5
212
100
AcDbEntity
8
test
6
ByLayer
62
256
370
-1
100
AcDbLine
10
-14
20
5
11
-13
21
5
0
LINE
5
213
100
AcDbEntity
8
test
6
ByLayer
62
256
370
-1
100
AcDbLine
10
-14
20
4
11
-13
21
4
0
LINE
5
214
100
AcDbEntity
8
test
6
ByLayer
62
256
370
-1
100
AcDbLine
10
-14
20
4
11
-14
21
5
0
LINE
5
215
100
AcDbEntity
8
test
6
ByLayer
62
256
370
-1
100
AcDbLine
10
-13
20
4
11
-13
21
5
0
LINE
5
216
100
AcDbEntity
8
test
6
ByLayer
62
256
370
-1
100
AcDbLine
10
-13.9
20
4.1
11
-13.9
21
4.9
0
LINE
5
217
100
AcDbEntity
8
test
6
ByLayer
62
256
370
-1
100
AcDbLine
10
-13.9
20
4.1
11
-13.1
21
4.1
0
LINE
5
218
100
AcDbEntity
8
test
6
ByLayer
62
256
370
-1
100
AcDbLine
10
-13.9
20
4.9
11
-13.1
21
4.9
0
LINE
5
219
100
AcDbEntity
8
test
6
ByLayer
62
256
370
-1
100
AcDbLine
10
-13.1
20
4.1
11
-13.1
21
4.9
0
LINE
5
21A
100
AcDbEntity
8
test
6
ByLayer
62
5
370
-1
100
AcDbLine
10
-13.7
20
4.825
11
-13.7
21
6
0
LINE
5
21B
100
AcDbEntity
8
test
6
ByLayer
62
5
370
-1
100
AcDbLine
10
-13.3
20
4.175
11
-13.3
21
3
0
ENDSEC
0
SECTION
2
OBJECTS
0
DICTIONARY
5
C
330
0
100
AcDbDictionary
281
1
3
ACAD_GROUP
350
D
0
DICTIONARY
5
D
330
C
100
AcDbDictionary
281
1
0
ENDSEC
0
EOF
