999
dxfrw 0.5.13
0
SECTION
2
HEADER
9
$ACADVER
1
AC1021
9
$HANDSEED
5
20000
9
$DWGCODEPAGE
3
ANSI_1252
9
$INSBASE
10
0
20
0
30
0
9
$EXTMIN
10
-17
20
-11
30
0
9
$EXTMAX
10
23.4851636337
20
25.0876464252
30
0
9
$LIMMIN
10
0
20
0
9
$LIMMAX
10
12
20
9
9
$ORTHOMODE
70
0
9
$LTSCALE
40
1
9
$TEXTSTYLE
7
Standard
9
$CLAYER
8
PTFE_B-01b
9
$DIMASZ
40
0.18
9
$DIMLFAC
40
1
9
$DIMSCALE
40
1
9
$DIMEXO
40
0.0625
9
$DIMEXE
40
0.18
9
$DIMTXT
40
0.18
9
$DIMTSZ
40
0
9
$DIMAUNIT
70
0
9
$DIMADEC
70
2
9
$DIMLUNIT
70
2
9
$DIMSTYLE
2
Standard
9
$DIMGAP
40
0.09
9
$DIMTIH
70
1
9
$LUNITS
70
2
9
$LUPREC
70
3
9
$AUNITS
70
0
9
$AUPREC
70
2
9
$SPLINESEGS
70
8
9
$GRIDMODE
70
1
9
$SNAPSTYLE
70
0
9
$GRIDUNIT
10
0
20
0
9
$PINSBASE
10
0
20
0
30
0
9
$PLIMMIN
10
0
20
0
9
$PLIMMAX
10
11.0000034
20
8.5000084
9
$INSUNITS
70
1
9
$PSVPSCALE
40
0
0
ENDSEC
0
SECTION
2
CLASSES
0
ENDSEC
0
SECTION
2
TABLES
0
TABLE
2
VPORT
5
8
330
0
100
AcDbSymbolTable
70
1
0
VPORT
5
31
330
2
100
AcDbSymbolTableRecord
100
AcDbViewportTableRecord
2
*ACTIVE
70
0
10
0
20
0
11
1
21
1
12
-3.12313791815
22
8.03851226118
13
0
23
0
14
10
24
10
15
10
25
10
16
0
26
0
36
1
17
0
27
0
37
0
40
3.23266347745
41
1.69609856263
42
50
43
0
44
0
50
0
51
0
71
0
72
100
73
1
74
3
75
0
76
1
77
0
78
0
281
0
65
1
110
0
120
0
130
0
111
1
121
0
131
0
112
0
122
1
132
0
79
0
146
0
348
10020
60
7
61
5
292
1
282
1
141
0
142
0
63
250
421
3358443
0
ENDTAB
0
TABLE
2
LTYPE
5
5
330
0
100
AcDbSymbolTable
70
4
0
LTYPE
5
14
330
5
100
AcDbSymbolTableRecord
100
AcDbLinetypeTableRecord
2
ByBlock
70
0
3

72
65
73
0
40
0
0
LTYPE
5
15
330
5
100
AcDbSymbolTableRecord
100
AcDbLinetypeTableRecord
2
ByLayer
70
0
3

72
65
73
0
40
0
0
LTYPE
5
16
330
5
100
AcDbSymbolTableRecord
100
AcDbLinetypeTableRecord
2
Continuous
70
0
3
Solid line
72
65
73
0
40
0
0
LTYPE
5
32
330
5
100
AcDbSymbolTableRecord
100
AcDbLinetypeTableRecord
2
DOT
70
0
3
Dot . . . . . . . . . . . . . . . . . . . . . .
72
65
73
2
40
6.35
49
0
74
0
49
-6.35
74
0
0
LTYPE
5
33
330
5
100
AcDbSymbolTableRecord
100
AcDbLinetypeTableRecord
2
DOT2
70
0
3
Dot (.5x) .....................................
72
65
73
2
40
3.175
49
0
74
0
49
-3.175
74
0
0
LTYPE
5
34
330
5
100
AcDbSymbolTableRecord
100
AcDbLinetypeTableRecord
2
DOTX2
70
0
3
Dot (2x) .  .  .  .  .  .  .  .  .  .  .  .  .
72
65
73
2
40
12.7
49
0
74
0
49
-12.7
74
0
0
LTYPE
5
35
330
5
100
AcDbSymbolTableRecord
100
AcDbLinetypeTableRecord
2
DASHED
70
0
3
Dot . . . . . . . . . . . . . . . . . . . . . .
72
65
73
2
40
19.05
49
12.7
74
0
49
-6.35
74
0
0
LTYPE
5
36
330
5
100
AcDbSymbolTableRecord
100
AcDbLinetypeTableRecord
2
DASHED2
70
0
3
Dashed (.5x) _ _ _ _ _ _ _ _ _ _ _ _ _ _ _ _ _
72
65
73
2
40
9.525
49
6.35
74
0
49
-3.175
74
0
0
LTYPE
5
37
330
5
100
AcDbSymbolTableRecord
100
AcDbLinetypeTableRecord
2
DASHEDX2
70
0
3
Dashed (2x) ____  ____  ____  ____  ____  ___
72
65
73
2
40
38.1
49
25.4
74
0
49
-12.7
74
0
0
LTYPE
5
38
330
5
100
AcDbSymbolTableRecord
100
AcDbLinetypeTableRecord
2
DASHDOT
70
0
3
Dash dot __ . __ . __ . __ . __ . __ . __ . __
72
65
73
4
40
25.4
49
12.7
74
0
49
-6.35
74
0
49
0
74
0
49
-6.35
74
0
0
LTYPE
5
39
330
5
100
AcDbSymbolTableRecord
100
AcDbLinetypeTableRecord
2
DASHDOT2
70
0
3
Dash dot (.5x) _._._._._._._._._._._._._._._.
72
65
73
4
40
12.7
49
6.35
74
0
49
-3.175
74
0
49
0
74
0
49
-3.175
74
0
0
LTYPE
5
3A
330
5
100
AcDbSymbolTableRecord
100
AcDbLinetypeTableRecord
2
DASHDOTX2
70
0
3
Dash dot (2x) ____  .  ____  .  ____  .  ___
72
65
73
4
40
50.8
49
25.4
74
0
49
-12.7
74
0
49
0
74
0
49
-12.7
74
0
0
LTYPE
5
3B
330
5
100
AcDbSymbolTableRecord
100
AcDbLinetypeTableRecord
2
DIVIDE
70
0
3
Divide ____ . . ____ . . ____ . . ____ . . ____
72
65
73
6
40
31.75
49
12.7
74
0
49
-6.35
74
0
49
0
74
0
49
-6.35
74
0
49
0
74
0
49
-6.35
74
0
0
LTYPE
5
3C
330
5
100
AcDbSymbolTableRecord
100
AcDbLinetypeTableRecord
2
DIVIDE2
70
0
3
Divide (.5x) __..__..__..__..__..__..__..__.._
72
65
73
6
40
15.875
49
6.35
74
0
49
-3.175
74
0
49
0
74
0
49
-3.175
74
0
49
0
74
0
49
-3.175
74
0
0
LTYPE
5
3D
330
5
100
AcDbSymbolTableRecord
100
AcDbLinetypeTableRecord
2
DIVIDEX2
70
0
3
Divide (2x) ________  .  .  ________  .  .  _
72
65
73
6
40
63.5
49
25.4
74
0
49
-12.7
74
0
49
0
74
0
49
-12.7
74
0
49
0
74
0
49
-12.7
74
0
0
LTYPE
5
3E
330
5
100
AcDbSymbolTableRecord
100
AcDbLinetypeTableRecord
2
BORDER
70
0
3
Border __ __ . __ __ . __ __ . __ __ . __ __ .
72
65
73
6
40
44.45
49
12.7
74
0
49
-6.35
74
0
49
12.7
74
0
49
-6.35
74
0
49
0
74
0
49
-6.35
74
0
0
LTYPE
5
3F
330
5
100
AcDbSymbolTableRecord
100
AcDbLinetypeTableRecord
2
BORDER2
70
0
3
Border (.5x) __.__.__.__.__.__.__.__.__.__.__.
72
65
73
6
40
22.225
49
6.35
74
0
49
-3.175
74
0
49
6.35
74
0
49
-3.175
74
0
49
0
74
0
49
-3.175
74
0
0
LTYPE
5
40
330
5
100
AcDbSymbolTableRecord
100
AcDbLinetypeTableRecord
2
BORDERX2
70
0
3
Border (2x) ____  ____  .  ____  ____  .  ___
72
65
73
6
40
88.9
49
25.4
74
0
49
-12.7
74
0
49
25.4
74
0
49
-12.7
74
0
49
0
74
0
49
-12.7
74
0
0
LTYPE
5
41
330
5
100
AcDbSymbolTableRecord
100
AcDbLinetypeTableRecord
2
CENTER
70
0
3
Center ____ _ ____ _ ____ _ ____ _ ____ _ ____
72
65
73
4
40
50.8
49
31.75
74
0
49
-6.35
74
0
49
6.35
74
0
49
-6.35
74
0
0
LTYPE
5
42
330
5
100
AcDbSymbolTableRecord
100
AcDbLinetypeTableRecord
2
CENTER2
70
0
3
Center (.5x) ___ _ ___ _ ___ _ ___ _ ___ _ ___
72
65
73
4
40
28.575
49
19.05
74
0
49
-3.175
74
0
49
3.175
74
0
49
-3.175
74
0
0
LTYPE
5
43
330
5
100
AcDbSymbolTableRecord
100
AcDbLinetypeTableRecord
2
CENTERX2
70
0
3
Center (2x) ________  __  ________  __  _____
72
65
73
4
40
101.6
49
63.5
74
0
49
-12.7
74
0
49
12.7
74
0
49
-12.7
74
0
0
ENDTAB
0
TABLE
2
LAYER
5
2
330
0
100
AcDbSymbolTable
70
1
0
LAYER
5
10
330
2
100
AcDbSymbolTableRecord
100
AcDbLayerTableRecord
2
0
70
0
62
7
6
CONTINUOUS
370
-3
390
F
0
LAYER
5
44
330
2
100
AcDbSymbolTableRecord
100
AcDbLayerTableRecord
2
Defpoints
70
0
62
7
6
CONTINUOUS
290
0
370
-3
390
F
0
LAYER
5
45
330
2
100
AcDbSymbolTableRecord
100
AcDbLayerTableRecord
2
Gasket_B-01a
70
0
62
251
420
6710886
6
CONTINUOUS
370
0
390
F
0
LAYER
5
46
330
2
100
AcDbSymbolTableRecord
100
AcDbLayerTableRecord
2
Gasket_B-01b
70
1
62
251
420
6710886
6
CONTINUOUS
370
0
390
F
0
LAYER
5
47
330
2
100
AcDbSymbolTableRecord
100
AcDbLayerTableRecord
2
Gasket_B-02a
70
1
62
251
420
6710886
6
CONTINUOUS
370
0
390
F
0
LAYER
5
48
330
2
100
AcDbSymbolTableRecord
100
AcDbLayerTableRecord
2
Gasket_B-02b
70
1
62
251
420
6710886
6
CONTINUOUS
370
0
390
F
0
LAYER
5
49
330
2
100
AcDbSymbolTableRecord
100
AcDbLayerTableRecord
2
Measurements
70
0
62
95
420
4172091
6
CONTINUOUS
370
0
390
F
0
LAYER
5
4A
330
2
100
AcDbSymbolTableRecord
100
AcDbLayerTableRecord
2
PTFE_B-01a
70
0
62
7
6
CONTINUOUS
370
0
390
F
0
LAYER
5
4B
330
2
100
AcDbSymbolTableRecord
100
AcDbLayerTableRecord
2
PTFE_B-01b
70
0
62
7
6
CONTINUOUS
370
0
390
F
0
LAYER
5
4C
330
2
100
AcDbSymbolTableRecord
100
AcDbLayerTableRecord
2
PTFE_B-02a
70
0
62
7
6
CONTINUOUS
370
0
390
F
0
LAYER
5
4D
330
2
100
AcDbSymbolTableRecord
100
AcDbLayerTableRecord
2
PTFE_B-02b
70
0
62
7
6
CONTINUOUS
370
0
390
F
0
LAYER
5
4E
330
2
100
AcDbSymbolTableRecord
100
AcDbLayerTableRecord
2
Red_Text
70
0
62
1
6
CONTINUOUS
370
0
390
F
0
LAYER
5
4F
330
2
100
AcDbSymbolTableRecord
100
AcDbLayerTableRecord
2
Temp_Probe
70
0
62
223
420
14504626
6
CONTINUOUS
370
0
390
F
0
LAYER
5
50
330
2
100
AcDbSymbolTableRecord
100
AcDbLayerTableRecord
2
_Annotations
70
0
62
240
420
15673146
6
CONTINUOUS
370
25
390
F
0
ENDTAB
0
TABLE
2
STYLE
5
3
330
0
100
AcDbSymbolTable
70
3
0
STYLE
5
51
330
2
100
AcDbSymbolTableRecord
100
AcDbTextStyleTableRecord
2
standard 360
70
0
40
0
41
1
50
0
71
0
42
1
3
standard 360
4

0
STYLE
5
52
330
2
100
AcDbSymbolTableRecord
100
AcDbTextStyleTableRecord
2
Standard
70
0
40
0
41
1
50
0
71
0
42
1
3
txt
4

0
ENDTAB
0
TABLE
2
VIEW
5
6
330
0
100
AcDbSymbolTable
70
0
0
ENDTAB
0
TABLE
2
UCS
5
7
330
0
100
AcDbSymbolTable
70
0
0
ENDTAB
0
TABLE
2
APPID
5
9
330
0
100
AcDbSymbolTable
70
1
0
APPID
5
12
330
9
100
AcDbSymbolTableRecord
100
AcDbRegAppTableRecord
2
ACAD
70
0
0
APPID
5
53
330
9
100
AcDbSymbolTableRecord
100
AcDbRegAppTableRecord
2
LibreCad
70
0
0
ENDTAB
0
TABLE
2
DIMSTYLE
5
A
330
0
100
AcDbSymbolTable
70
1
100
AcDbDimStyleTable
71
1
0
DIMSTYLE
105
54
330
A
100
AcDbSymbolTableRecord
100
AcDbDimStyleTableRecord
2
Standard
70
0
40
1
41
0.18
42
0.0625
43
0.38
44
0.18
45
0
46
0
47
0
48
0
140
0.18
141
0.09
142
0
143
25.4
144
1
145
0
146
1
147
0.09
148
0
71
0
72
0
73
0
74
1
75
0
76
0
77
0
78
0
79
0
170
0
171
2
172
0
173
0
174
0
175
0
176
0
177
0
178
0
179
0
271
4
272
4
273
2
274
2
275
0
276
0
277
2
278
46
279
0
280
0
281
0
282
0
283
1
284
0
285
0
286
0
288
0
289
3
340
Standard
341

371
-2
372
-2
0
ENDTAB
0
TABLE
2
BLOCK_RECORD
5
1
330
0
100
AcDbSymbolTable
70
2
0
BLOCK_RECORD
5
1F
330
1
100
AcDbSymbolTableRecord
100
AcDbBlockTableRecord
2
*Model_Space
70
0
280
1
281
0
0
BLOCK_RECORD
5
1E
330
1
100
AcDbSymbolTableRecord
100
AcDbBlockTableRecord
2
*Paper_Space
70
0
280
1
281
0
0
BLOCK_RECORD
5
55
330
1
100
AcDbSymbolTableRecord
100
AcDbBlockTableRecord
2
*D2
70
0
280
1
281
0
0
BLOCK_RECORD
5
58
330
1
100
AcDbSymbolTableRecord
100
AcDbBlockTableRecord
2
*D4
70
0
280
1
281
0
0
BLOCK_RECORD
5
5B
330
1
100
AcDbSymbolTableRecord
100
AcDbBlockTableRecord
2
*D1
70
0
280
1
281
0
0
BLOCK_RECORD
5
5E
330
1
100
AcDbSymbolTableRecord
100
AcDbBlockTableRecord
2
*D3
70
0
280
1
281
0
0
BLOCK_RECORD
5
61
330
1
100
AcDbSymbolTableRecord
100
AcDbBlockTableRecord
2
Cloud0
70
0
280
1
281
0
0
BLOCK_RECORD
5
64
330
1
100
AcDbSymbolTableRecord
100
AcDbBlockTableRecord
2
Cloud1
70
0
280
1
281
0
0
ENDTAB
0
ENDSEC
0
SECTION
2
BLOCKS
0
BLOCK
5
20
330
1F
100
AcDbEntity
8
0
100
AcDbBlockBegin
2
*Model_Space
70
0
10
0
20
0
30
0
3
*Model_Space
1

0
ENDBLK
5
21
330
1F
100
AcDbEntity
8
0
100
AcDbBlockEnd
0
BLOCK
5
1C
330
1B
100
AcDbEntity
8
0
100
AcDbBlockBegin
2
*Paper_Space
70
0
10
0
20
0
30
0
3
*Paper_Space
1

0
ENDBLK
5
1D
330
1F
100
AcDbEntity
8
0
100
AcDbBlockEnd
0
BLOCK
5
56
330
55
100
AcDbEntity
8
0
100
AcDbBlockBegin
2
*D2
70
1
10
0
20
0
3
*D2
1

0
LINE
5
67
100
AcDbEntity
8
Measurements
6
CONTINUOUS
62
7
370
0
100
AcDbLine
10
13.3353231433
20
15.052303616
11
13.9177198257
21
15.052303616
0
LINE
5
68
100
AcDbEntity
8
Measurements
6
CONTINUOUS
62
7
370
0
100
AcDbLine
10
13.3353231433
20
8.55230361596
11
13.9177198257
21
8.55230361596
0
LINE
5
69
100
AcDbEntity
8
Measurements
6
CONTINUOUS
62
7
370
0
100
AcDbLine
10
13.7377198257
20
15.052303616
11
13.7377198257
21
8.55230361596
0
SOLID
5
6A
100
AcDbEntity
8
Measurements
6
CONTINUOUS
62
7
370
0
100
AcDbTrace
10
13.7377198257
20
15.052303616
30
0
11
13.7676923211
21
14.872303616
31
0
12
13.7077473303
22
14.872303616
32
0
13
13.7077473303
23
14.872303616
33
0
0
SOLID
5
6B
100
AcDbEntity
8
Measurements
6
CONTINUOUS
62
7
370
0
100
AcDbTrace
10
13.7377198257
20
8.55230361596
30
0
11
13.7077473303
21
8.73230361596
31
0
12
13.7676923211
22
8.73230361596
32
0
13
13.7676923211
23
8.73230361596
33
0
0
MTEXT
5
6C
100
AcDbEntity
8
Measurements
6
CONTINUOUS
62
7
370
0
100
AcDbMText
10
2.08566729461
20
-4.44142853568
30
0
40
0.18
41
0.56
71
5
72
1
1
6.500
7
standard
210
0
220
0
230
1
50
0
73
2
44
1
0
ENDBLK
5
57
330
55
100
AcDbEntity
8
0
100
AcDbBlockEnd
0
BLOCK
5
59
330
58
100
AcDbEntity
8
0
100
AcDbBlockBegin
2
*D4
70
1
10
0
20
0
3
*D4
1

0
LINE
5
6D
100
AcDbEntity
8
Measurements
6
CONTINUOUS
62
7
370
0
100
AcDbLine
10
12.6328231433
20
15.114803616
11
12.6328231433
21
15.6005297602
0
LINE
5
6E
100
AcDbEntity
8
Measurements
6
CONTINUOUS
62
7
370
0
100
AcDbLine
10
13.2728231433
20
15.114803616
11
13.2728231433
21
15.6005297602
0
LINE
5
6F
100
AcDbEntity
8
Measurements
6
CONTINUOUS
62
7
370
0
100
AcDbLine
10
12.6328231433
20
15.4205297602
11
13.2728231433
21
15.4205297602
0
SOLID
5
70
100
AcDbEntity
8
Measurements
6
CONTINUOUS
62
7
370
0
100
AcDbTrace
10
12.6328231433
20
15.4205297602
30
0
11
12.8128231433
21
15.4505022556
31
0
12
12.8128231433
22
15.3905572648
32
0
13
12.8128231433
23
15.3905572648
33
0
0
SOLID
5
71
100
AcDbEntity
8
Measurements
6
CONTINUOUS
62
7
370
0
100
AcDbTrace
10
13.2728231433
20
15.4205297602
30
0
11
13.0928231433
21
15.3905572648
31
0
12
13.0928231433
22
15.4505022556
32
0
13
13.0928231433
23
15.4505022556
33
0
0
MTEXT
5
72
100
AcDbEntity
8
Measurements
6
CONTINUOUS
62
7
370
0
100
AcDbMText
10
12.9528231433
20
15.4205297602
30
0
40
0.18
41
0.58
71
5
72
1
1
0.640
7
standard
210
0
220
0
230
1
50
0
73
2
44
1
0
ENDBLK
5
5A
330
58
100
AcDbEntity
8
0
100
AcDbBlockEnd
0
BLOCK
5
5C
330
5B
100
AcDbEntity
8
0
100
AcDbBlockBegin
2
*D1
70
1
10
0
20
0
3
*D1
1

0
LINE
5
73
100
AcDbEntity
8
Measurements
6
CONTINUOUS
62
7
370
0
100
AcDbLine
10
13.3353231433
20
8.55230361596
11
13.9177198257
21
8.55230361596
0
LINE
5
74
100
AcDbEntity
8
Measurements
6
CONTINUOUS
62
7
370
0
100
AcDbLine
10
13.3353231433
20
0.94769638404
11
13.9177198257
21
0.94769638404
0
LINE
5
75
100
AcDbEntity
8
Measurements
6
CONTINUOUS
62
7
370
0
100
AcDbLine
10
13.7377198257
20
8.55230361596
11
13.7377198257
21
0.94769638404
0
SOLID
5
76
100
AcDbEntity
8
Measurements
6
CONTINUOUS
62
7
370
0
100
AcDbTrace
10
13.7377198257
20
8.55230361596
30
0
11
13.7676923211
21
8.37230361596
31
0
12
13.7077473303
22
8.37230361596
32
0
13
13.7077473303
23
8.37230361596
33
0
0
SOLID
5
77
100
AcDbEntity
8
Measurements
6
CONTINUOUS
62
7
370
0
100
AcDbTrace
10
13.7377198257
20
0.94769638404
30
0
11
13.7077473303
21
1.12769638404
31
0
12
13.7676923211
22
1.12769638404
32
0
13
13.7676923211
23
1.12769638404
33
0
0
MTEXT
5
78
100
AcDbEntity
8
Measurements
6
CONTINUOUS
62
7
370
0
100
AcDbMText
10
2.08566729461
20
-4.44142853568
30
0
40
0.18
41
0.56
71
5
72
1
1
7.605
7
standard
210
0
220
0
230
1
50
0
73
2
44
1
0
ENDBLK
5
5D
330
5B
100
AcDbEntity
8
0
100
AcDbBlockEnd
0
BLOCK
5
5F
330
5E
100
AcDbEntity
8
0
100
AcDbBlockBegin
2
*D3
70
1
10
0
20
0
3
*D3
1

0
LINE
5
79
100
AcDbEntity
8
Measurements
6
CONTINUOUS
62
7
370
0
100
AcDbLine
10
12.9212303752
20
0.88519638404
11
12.9212303752
21
0.195721966244
0
LINE
5
7A
100
AcDbEntity
8
Measurements
6
CONTINUOUS
62
7
370
0
100
AcDbLine
10
12.9720303752
20
0.88519638404
11
12.9720303752
21
0.195721966244
0
LINE
5
7B
100
AcDbEntity
8
Measurements
6
CONTINUOUS
62
7
370
0
100
AcDbLine
10
12.5612303752
20
0.375721966244
11
12.5966303752
21
0.375721966244
0
SOLID
5
7C
100
AcDbEntity
8
Measurements
6
CONTINUOUS
62
7
370
0
100
AcDbTrace
10
12.9212303752
20
0.375721966244
30
0
11
12.7412303752
21
0.345749470884
31
0
12
12.7412303752
22
0.405694461604
32
0
13
12.7412303752
23
0.405694461604
33
0
0
SOLID
5
7D
100
AcDbEntity
8
Measurements
6
CONTINUOUS
62
7
370
0
100
AcDbTrace
10
12.9720303752
20
0.375721966244
30
0
11
13.1520303752
21
0.405694461604
31
0
12
13.1520303752
22
0.345749470884
32
0
13
13.1520303752
23
0.345749470884
33
0
0
LINE
5
7E
100
AcDbEntity
8
Measurements
6
CONTINUOUS
62
7
370
0
100
AcDbLine
10
13.2966303752
20
0.375721966244
11
13.3320303752
21
0.375721966244
0
MTEXT
5
7F
100
AcDbEntity
8
Measurements
6
CONTINUOUS
62
7
370
0
100
AcDbMText
10
13.3220303752
20
0.375721966244
30
0
40
0.18
41
0.52
71
5
72
1
1
0.051
7
standard
210
0
220
0
230
1
50
0
73
2
44
1
0
ENDBLK
5
60
330
5E
100
AcDbEntity
8
0
100
AcDbBlockEnd
0
BLOCK
5
62
330
61
100
AcDbEntity
8
0
100
AcDbBlockBegin
2
Cloud0
70
0
10
0
20
0
3
Cloud0
1

0
ELLIPSE
5
80
100
AcDbEntity
8
Temp_Probe
6
ByBlock
62
0
370
-2
100
AcDbEllipse
10
-1.5314677707
20
0.482128742627
30
0
11
-1.60556583707
21
0
31
0
40
1
41
2.83660030678
42
4.69119074278
0
ELLIPSE
5
81
100
AcDbEntity
8
Temp_Probe
6
ByBlock
62
0
370
-2
100
AcDbEllipse
10
-0.436751919792
20
-1.48041884501
30
0
11
-1.54349998254
21
0
31
0
40
1
41
2.57091757154
42
4.42550800754
0
ELLIPSE
5
82
100
AcDbEntity
8
Temp_Probe
6
ByBlock
62
0
370
-2
100
AcDbEllipse
10
0.0680652342532
20
-3.70388316395
30
0
11
-1.60054843156
21
0
31
0
40
1
41
2.33865243013
42
4.19324286614
0
ELLIPSE
5
83
100
AcDbEntity
8
Temp_Probe
6
ByBlock
62
0
370
-2
100
AcDbEllipse
10
0.243900422741
20
-5.96138010001
30
0
11
-1.44888646523
21
0
31
0
40
1
41
2.15554161287
42
4.01013204888
0
ELLIPSE
5
84
100
AcDbEntity
8
Temp_Probe
6
ByBlock
62
0
370
-2
100
AcDbEllipse
10
0.328981965557
20
-8.40605643027
30
0
11
-1.4281990058
21
0
31
0
40
1
41
2.33372636161
42
4.18831679761
0
ELLIPSE
5
85
100
AcDbEntity
8
Temp_Probe
6
ByBlock
62
0
370
-2
100
AcDbEllipse
10
0.516161359754
20
-10.6465370578
30
0
11
-1.44888646523
21
0
31
0
40
1
41
2.2730532583
42
4.12764369431
0
ELLIPSE
5
86
100
AcDbEntity
8
Temp_Probe
6
ByBlock
62
0
370
-2
100
AcDbEllipse
10
0.0510489256899
20
-12.0135138457
30
0
11
-1.42509820493
21
0
31
0
40
1
41
1.4711276743
42
3.32571811031
0
ELLIPSE
5
87
100
AcDbEntity
8
Temp_Probe
6
ByBlock
62
0
370
-2
100
AcDbEllipse
10
-0.587062645434
20
-13.502440845
30
0
11
-0.501347798995
21
0
31
0
40
1
41
1.42889927219
42
3.28348970819
0
ENDBLK
5
63
330
61
100
AcDbEntity
8
0
100
AcDbBlockEnd
0
BLOCK
5
65
330
64
100
AcDbEntity
8
0
100
AcDbBlockBegin
2
Cloud1
70
0
10
0
20
0
3
Cloud1
1

0
ELLIPSE
5
88
100
AcDbEntity
8
Temp_Probe
6
ByBlock
62
0
370
-2
100
AcDbEllipse
10
-0.66465630512
20
-0.802450904961
30
0
11
-1.04196711023
21
0
31
0
40
1
41
4.0206387431
42
5.87522917911
0
ELLIPSE
5
89
100
AcDbEntity
8
Temp_Probe
6
ByBlock
62
0
370
-2
100
AcDbEllipse
10
0.688972999209
20
-0.770028646175
30
0
11
-1.03326081391
21
0
31
0
40
1
41
3.58769820253
42
5.44228863854
0
ELLIPSE
5
8A
100
AcDbEntity
8
Temp_Probe
6
ByBlock
62
0
370
-2
100
AcDbEllipse
10
1.34147095728
20
-1.30499591615
30
0
11
-1.019860755
21
0
31
0
40
1
41
2.58004473685
42
4.43463517285
0
ELLIPSE
5
8B
100
AcDbEntity
8
Temp_Probe
6
ByBlock
62
0
370
-2
100
AcDbEllipse
10
1.54005729235
20
-2.66673078517
30
0
11
-1.05450250376
21
0
31
0
40
1
41
2.17585484557
42
4.03044528157
0
ELLIPSE
5
8C
100
AcDbEntity
8
Temp_Probe
6
ByBlock
62
0
370
-2
100
AcDbEllipse
10
1.56437398644
20
-4.36889937146
30
0
11
-1.01400581958
21
0
31
0
40
1
41
2.25427612271
42
4.10886655871
0
ELLIPSE
5
8D
100
AcDbEntity
8
Temp_Probe
6
ByBlock
62
0
370
-2
100
AcDbEllipse
10
1.53195172765
20
-5.9170622285
30
0
11
-1.01643264192
21
0
31
0
40
1
41
2.13446744988
42
3.98905788588
0
ELLIPSE
5
8E
100
AcDbEntity
8
Temp_Probe
6
ByBlock
62
0
370
-2
100
AcDbEllipse
10
1.50763503356
20
-7.66786420297
30
0
11
-1.05683633731
21
0
31
0
40
1
41
2.29106932686
42
4.14565976286
0
ELLIPSE
5
8F
100
AcDbEntity
8
Temp_Probe
6
ByBlock
62
0
370
-2
100
AcDbEllipse
10
1.75890753916
20
-9.39434948334
30
0
11
-1.03326081391
21
0
31
0
40
1
41
2.41169299544
42
4.26628343144
0
ELLIPSE
5
90
100
AcDbEntity
8
Temp_Probe
6
ByBlock
62
0
370
-2
100
AcDbEllipse
10
1.9048077037
20
-10.9830401639
30
0
11
-1.09500149209
21
0
31
0
40
1
41
2.25131755146
42
4.10590798747
0
ELLIPSE
5
91
100
AcDbEntity
8
Temp_Probe
6
ByBlock
62
0
370
-2
100
AcDbEllipse
10
1.79943536264
20
-12.555519715
30
0
11
-1.07303105168
21
0
31
0
40
1
41
2.02430914767
42
3.87889958367
0
ELLIPSE
5
92
100
AcDbEntity
8
Temp_Probe
6
ByBlock
62
0
370
-2
100
AcDbEllipse
10
1.48331833947
20
-14.1968965661
30
0
11
-1.03742520601
21
0
31
0
40
1
41
1.99774713061
42
3.85233756662
0
ELLIPSE
5
93
100
AcDbEntity
8
Temp_Probe
6
ByBlock
62
0
370
-2
100
AcDbEllipse
10
0.932139940107
20
-15.4694702234
30
0
11
-1.03425385673
21
0
31
0
40
1
41
1.60999192872
42
3.46458236473
0
ELLIPSE
5
94
100
AcDbEntity
8
Temp_Probe
6
ByBlock
62
0
370
-2
100
AcDbEllipse
10
0.198586335066
20
-15.8463789818
30
0
11
-1.0150177007
21
0
31
0
40
1
41
0.583572953672
42
2.43816338968
0
ELLIPSE
5
95
100
AcDbEntity
8
Temp_Probe
6
ByBlock
62
0
370
-2
100
AcDbEllipse
10
-0.891612116624
20
-15.4127312705
30
0
11
-1.02227367814
21
0
31
0
40
1
41
6.23956220583
42
8.09415264183
0
ELLIPSE
5
96
100
AcDbEntity
8
Temp_Probe
6
ByBlock
62
0
370
-2
100
AcDbEllipse
10
-1.25636252797
20
-14.5940692362
30
0
11
-1.0150177007
21
0
31
0
40
1
41
5.29596193406
42
7.15055237006
0
ELLIPSE
5
97
100
AcDbEntity
8
Temp_Probe
6
ByBlock
62
0
370
-2
100
AcDbEllipse
10
-1.01724836942
20
-12.648733709
30
0
11
-1.35783330148
21
0
31
0
40
1
41
5.37081435417
42
7.22540479017
0
ELLIPSE
5
98
100
AcDbEntity
8
Temp_Probe
6
ByBlock
62
0
370
-2
100
AcDbEllipse
10
-1.25636252797
20
-10.75203157
30
0
11
-1.01339820593
21
0
31
0
40
1
41
5.37588742315
42
7.23047785915
0
ELLIPSE
5
99
100
AcDbEntity
8
Temp_Probe
6
ByBlock
62
0
370
-2
100
AcDbEllipse
10
-1.15099018691
20
-9.08228524252
30
0
11
-1.13640624095
21
0
31
0
40
1
41
5.30236982072
42
7.15696025672
0
ELLIPSE
5
9A
100
AcDbEntity
8
Temp_Probe
6
ByBlock
62
0
370
-2
100
AcDbEllipse
10
-1.06182897525
20
-7.31121935632
30
0
11
-1.09724918824
21
0
31
0
40
1
41
5.28195105152
42
7.13654148752
0
ELLIPSE
5
9B
100
AcDbEntity
8
Temp_Probe
6
ByBlock
62
0
370
-2
100
AcDbEllipse
10
-1.00509002238
20
-5.55636459951
30
0
11
-1.05391823785
21
0
31
0
40
1
41
5.33666169008
42
7.19125212608
0
ELLIPSE
5
9C
100
AcDbEntity
8
Temp_Probe
6
ByBlock
62
0
370
-2
100
AcDbEllipse
10
-0.996984457679
20
-3.9028294014
30
0
11
-1.01339820593
21
0
31
0
40
1
41
5.3358927552
42
7.19048319121
0
ELLIPSE
5
9D
100
AcDbEntity
8
Temp_Probe
6
ByBlock
62
0
370
-2
100
AcDbEllipse
10
-0.984826110635
20
-2.2411886386
30
0
11
-1.03365814552
21
0
31
0
40
1
41
5.37549542004
42
7.23008585604
0
ELLIPSE
5
9E
100
AcDbEntity
8
Temp_Probe
6
ByBlock
62
0
370
-2
100
AcDbEllipse
10
-1.23204583388
20
-0.907823246017
30
0
11
-0.648445175726
21
0
31
0
40
1
41
5.35589008918
42
7.21048052518
0
ENDBLK
5
66
330
64
100
AcDbEntity
8
0
100
AcDbBlockEnd
0
ENDSEC
0
SECTION
2
ENTITIES
0
LWPOLYLINE
5
9F
100
AcDbEntity
8
Temp_Probe
6
ByLayer
62
256
370
-1
100
AcDbPolyline
90
4
70
1
43
0
10
12.9212303752
20
8.56769638404
10
12.9720303752
20
8.56769638404
10
12.9720303752
20
0.94769638404
10
12.9212303752
20
0.94769638404
0
LWPOLYLINE
5
A0
100
AcDbEntity
8
Temp_Probe
6
ByLayer
62
251
420
6710886
370
-1
100
AcDbPolyline
90
4
70
1
43
0
10
12.6328231433
20
8.55230361596
10
13.2728231433
20
8.55230361596
10
13.2728231433
20
15.052303616
10
12.6328231433
20
15.052303616
0
MTEXT
5
A1
100
AcDbEntity
8
Temp_Probe
6
ByLayer
62
256
370
-1
100
AcDbMText
10
12.8124147043
20
11.4705660792
30
0
40
0.580823332294
41
13.617080346
71
1
72
5
1
{\c-2;\H0.23790523690773135;Prob}
7
standard 360
210
0
220
0
230
1
50
90
73
1
44
1
0
LWPOLYLINE
5
A2
100
AcDbEntity
8
Temp_Probe
6
ByLayer
62
256
370
-1
100
AcDbPolyline
90
4
70
1
43
0
10
17.0787696248
20
7.43230361596
10
17.0279696248
20
7.43230361596
10
17.0279696248
20
15.052303616
10
17.0787696248
20
15.052303616
0
LWPOLYLINE
5
A3
100
AcDbEntity
8
Temp_Probe
6
ByLayer
62
251
370
-1
100
AcDbPolyline
90
4
70
1
43
0
10
17.3671768567
20
7.44769638404
10
16.7271768567
20
7.44769638404
10
16.7271768567
20
0.94769638404
10
17.3671768567
20
0.94769638404
0
MTEXT
5
A4
100
AcDbEntity
8
Temp_Probe
6
ByLayer
62
256
370
-1
100
AcDbMText
10
17.1875852957
20
4.52943392078
30
0
40
0.580823332294
41
13.617080346
71
1
72
5
1
{\c-2;\H0.23790523690773135;Prob}
7
standard 360
210
0
220
0
230
1
50
-90
73
1
44
1
0
LWPOLYLINE
5
A5
100
AcDbEntity
8
Gasket_B-01b
6
ByLayer
62
251
420
6710886
370
-1
100
AcDbPolyline
90
4
70
1
43
0
10
0.6903125
20
6.642525
10
0.7696875
20
6.642525
10
0.7696875
20
13.357525
10
0.6903125
20
13.357525
0
LWPOLYLINE
5
A6
100
AcDbEntity
8
Gasket_B-01b
6
CONTINUOUS
62
1
370
-1
100
AcDbPolyline
90
4
70
1
43
0
10
0.6903125
20
12.7225
10
0.7696875
20
12.7225
10
0.7696875
20
12.0875
10
0.6903125
20
12.0875
0
LWPOLYLINE
5
A7
100
AcDbEntity
8
Gasket_B-01b
6
CONTINUOUS
62
1
370
-1
100
AcDbPolyline
90
4
70
1
43
0
10
0.6903125
20
7.2775
10
0.7696875
20
7.2775
10
0.7696875
20
7.9125
10
0.6903125
20
7.9125
0
LWPOLYLINE
5
A8
100
AcDbEntity
8
PTFE_B-02a
6
ByLayer
62
256
370
-1
100
AcDbPolyline
90
4
70
1
43
0
10
3.81
20
-1.189975
10
-3.81
20
-1.189975
10
-3.81
20
-8.809975
10
3.81
20
-8.809975
0
LWPOLYLINE
5
A9
100
AcDbEntity
8
PTFE_B-02a
6
ByLayer
62
5
370
-1
100
AcDbPolyline
90
2
70
0
43
0
10
0.625
20
-5.466225
10
0.6504
20
-5.466225
0
LWPOLYLINE
5
AA
100
AcDbEntity
8
PTFE_B-02a
6
ByLayer
62
5
370
-1
100
AcDbPolyline
90
2
70
0
43
0
10
0.625
20
-5.466225
10
0.5996
20
-5.466225
0
LWPOLYLINE
5
AB
100
AcDbEntity
8
PTFE_B-02a
6
ByLayer
62
5
370
-1
100
AcDbPolyline
90
2
70
0
43
0
10
-0.625
20
-4.533725
10
-0.5996
20
-4.533725
0
LWPOLYLINE
5
AC
100
AcDbEntity
8
PTFE_B-02a
6
ByLayer
62
5
370
-1
100
AcDbPolyline
90
2
70
0
43
0
10
-0.625
20
-4.533725
10
-0.6504
20
-4.533725
0
LWPOLYLINE
5
AD
100
AcDbEntity
8
PTFE_B-02b
6
ByLayer
62
7
370
-1
100
AcDbPolyline
90
4
70
1
43
0
10
-11.7696875
20
-1.19
10
-14.3096875
20
-1.19
10
-14.3096875
20
-8.81
10
-11.7696875
20
-8.81
0
LWPOLYLINE
5
AE
100
AcDbEntity
8
Gasket_B-02a
6
ByLayer
62
256
370
-1
100
AcDbPolyline
90
4
70
1
43
0
10
3.3575
20
-1.642475
10
-3.3575
20
-1.642475
10
-3.3575
20
-8.357475
10
3.3575
20
-8.357475
0
LWPOLYLINE
5
AF
100
AcDbEntity
8
Gasket_B-02b
6
ByLayer
62
251
370
-1
100
AcDbPolyline
90
4
70
1
43
0
10
-11.6903125
20
-8.357475
10
-11.7696875
20
-8.357475
10
-11.7696875
20
-1.642475
10
-11.6903125
20
-1.642475
0
LWPOLYLINE
5
B0
100
AcDbEntity
8
PTFE_B-02a
6
CONTINUOUS
62
5
370
-1
100
AcDbPolyline
90
2
70
0
43
0
10
0.5996
20
-5.466225
10
0.5996
20
-1.189975
0
LWPOLYLINE
5
B1
100
AcDbEntity
8
PTFE_B-02a
6
CONTINUOUS
62
5
370
-1
100
AcDbPolyline
90
2
70
0
43
0
10
0.6504
20
-5.466225
10
0.6504
20
-1.189975
0
LWPOLYLINE
5
B2
100
AcDbEntity
8
PTFE_B-02a
6
CONTINUOUS
62
5
370
-1
100
AcDbPolyline
90
2
70
0
43
0
10
-0.6504
20
-4.533725
10
-0.6504
20
-8.809975
0
LWPOLYLINE
5
B3
100
AcDbEntity
8
PTFE_B-02a
6
CONTINUOUS
62
5
370
-1
100
AcDbPolyline
90
2
70
0
43
0
10
-0.5996
20
-4.533725
10
-0.5996
20
-8.810025
0
LWPOLYLINE
5
B4
100
AcDbEntity
8
PTFE_B-02b
6
CONTINUOUS
62
1
370
-1
100
AcDbPolyline
90
4
70
1
43
0
10
-11.7696875
20
-2.2775
10
-14.3096875
20
-2.2775
10
-14.3096875
20
-2.9125
10
-11.7696875
20
-2.9125
0
LWPOLYLINE
5
B5
100
AcDbEntity
8
PTFE_B-02b
6
CONTINUOUS
62
1
370
-1
100
AcDbPolyline
90
4
70
1
43
0
10
-11.7696875
20
-7.7225
10
-14.3096875
20
-7.7225
10
-14.3096875
20
-7.0875
10
-11.7696875
20
-7.0875
0
LWPOLYLINE
5
B6
100
AcDbEntity
8
Gasket_B-02b
6
CONTINUOUS
62
1
370
-1
100
AcDbPolyline
90
4
70
1
43
0
10
-11.6903125
20
-2.2775
10
-11.7696875
20
-2.2775
10
-11.7696875
20
-2.9125
10
-11.6903125
20
-2.9125
0
LWPOLYLINE
5
B7
100
AcDbEntity
8
Gasket_B-02b
6
CONTINUOUS
62
1
370
-1
100
AcDbPolyline
90
4
70
1
43
0
10
-11.6903125
20
-7.7225
10
-11.7696875
20
-7.7225
10
-11.7696875
20
-7.0875
10
-11.6903125
20
-7.0875
0
LWPOLYLINE
5
B8
100
AcDbEntity
8
PTFE_B-02b
6
CONTINUOUS
62
2
370
-1
100
AcDbPolyline
90
4
70
1
43
0
10
-11.7696875
20
-4.533725
10
-14.3096875
20
-4.533725
10
-14.3096875
20
-4.216225
10
-11.7696875
20
-4.216225
0
LWPOLYLINE
5
B9
100
AcDbEntity
8
PTFE_B-02b
6
CONTINUOUS
62
2
370
-1
100
AcDbPolyline
90
4
70
1
43
0
10
-11.7696875
20
-5.783725
10
-14.3096875
20
-5.783725
10
-14.3096875
20
-5.466225
10
-11.7696875
20
-5.466225
0
LWPOLYLINE
5
BA
100
AcDbEntity
8
PTFE_B-02b
6
CONTINUOUS
62
5
370
-1
100
AcDbPolyline
90
4
70
1
43
0
10
-11.9403125
20
-1.19
10
-11.9911125
20
-1.19
10
-11.9911125
20
-8.81
10
-11.9403125
20
-8.81
0
CIRCLE
5
BB
100
AcDbEntity
8
PTFE_B-02a
6
ByLayer
62
2
370
-1
100
AcDbCircle
10
0.625
20
-5.624975
40
0.15875
0
CIRCLE
5
BC
100
AcDbEntity
8
PTFE_B-02a
6
ByLayer
62
2
370
-1
100
AcDbCircle
10
-0.625
20
-4.374975
40
0.15875
0
CIRCLE
5
BD
100
AcDbEntity
8
Gasket_B-02a
6
ByLayer
62
253
370
-1
100
AcDbCircle
10
-2.405
20
-2.594975
40
0.3175
0
CIRCLE
5
BE
100
AcDbEntity
8
Gasket_B-02a
6
ByLayer
62
253
370
-1
100
AcDbCircle
10
-2.405
20
-7.404975
40
0.3175
0
CIRCLE
5
BF
100
AcDbEntity
8
Gasket_B-02a
6
ByLayer
62
253
370
-1
100
AcDbCircle
10
2.405
20
-2.594975
40
0.3175
0
CIRCLE
5
C0
100
AcDbEntity
8
Gasket_B-02a
6
ByLayer
62
253
370
-1
100
AcDbCircle
10
2.405
20
-7.404975
40
0.3175
0
CIRCLE
5
C1
100
AcDbEntity
8
PTFE_B-02a
6
ByLayer
62
1
370
-1
100
AcDbCircle
10
-2.405
20
-2.594975
40
0.3175
0
CIRCLE
5
C2
100
AcDbEntity
8
PTFE_B-02a
6
ByLayer
62
1
370
-1
100
AcDbCircle
10
2.405
20
-2.594975
40
0.3175
0
CIRCLE
5
C3
100
AcDbEntity
8
PTFE_B-02a
6
ByLayer
62
1
370
-1
100
AcDbCircle
10
2.405
20
-7.404975
40
0.3175
0
CIRCLE
5
C4
100
AcDbEntity
8
PTFE_B-02a
6
ByLayer
62
1
370
-1
100
AcDbCircle
10
-2.405
20
-7.404975
40
0.3175
0
MTEXT
5
C5
100
AcDbEntity
8
Red_Text
6
ByLayer
62
256
370
-1
100
AcDbMText
10
-10.3503303382
20
2.58282868432
30
0
40
0.602544787747
41
12.3019560832
71
1
72
5
1
Copy of Block A but Mirrored
7
standard 360
210
0
220
0
230
1
50
0
73
1
44
1
0
MTEXT
5
C6
100
AcDbEntity
8
Red_Text
6
ByLayer
62
256
370
-1
100
AcDbMText
10
-14.520143124
20
18.4526418238
30
0
40
0.602544787747
41
8.20130405545
71
1
72
5
1
Front View: Block-A
7
standard 360
210
0
220
0
230
1
50
0
73
1
44
1
0
MTEXT
5
C7
100
AcDbEntity
8
Red_Text
6
ByLayer
62
256
370
-1
100
AcDbMText
10
-0.769170647793
20
18.4526418238
30
0
40
0.602544787747
41
7.66570856082
71
1
72
5
1
Side View: Block-A
7
standard 360
210
0
220
0
230
1
50
0
73
1
44
1
0
MTEXT
5
C8
100
AcDbEntity
8
Red_Text
6
ByLayer
62
256
370
-1
100
AcDbMText
10
-14.9419244754
20
0.406425430791
30
0
40
0.602544787747
41
7.59875913996
71
1
72
5
1
Side View: Block-B
7
standard 360
210
0
220
0
230
1
50
0
73
1
44
1
0
MTEXT
5
C9
100
AcDbEntity
8
Red_Text
6
ByLayer
62
256
370
-1
100
AcDbMText
10
-3.57417015049
20
0.406425430791
30
0
40
0.602544787747
41
8.13435463458
71
1
72
5
1
Front View: Block-B
7
standard 360
210
0
220
0
230
1
50
0
73
1
44
1
0
DIMENSION
5
CA
100
AcDbEntity
8
Measurements
6
ByLayer
62
256
370
-1
100
AcDbDimension
2
*D1
10
13.7377198257
20
0.94769638404
30
0
11
2.08566729461
21
-4.44142853568
31
0
70
33
71
5
3
Standard 360
53
0
210
0
220
0
230
1
100
AcDbAlignedDimension
13
13.2728231433
23
8.55230361596
33
0
14
13.2728231433
24
0.94769638404
34
0
0
DIMENSION
5
CB
100
AcDbEntity
8
Measurements
6
ByLayer
62
256
370
-1
100
AcDbDimension
2
*D2
10
13.7377198257
20
8.55230361596
30
0
11
2.08566729461
21
-4.44142853568
31
0
70
33
71
5
3
Standard 360
53
0
210
0
220
0
230
1
100
AcDbAlignedDimension
13
13.2728231433
23
15.052303616
33
0
14
13.2728231433
24
8.55230361596
34
0
0
MTEXT
5
CC
100
AcDbEntity
8
Red_Text
6
ByLayer
62
256
370
-1
100
AcDbMText
10
10.3128644596
20
18.8084897249
30
0
40
0.602544787747
41
13.1722991741
71
1
72
5
1
Temperature Probes\PWill be inserted into blue holes
7
standard 360
210
0
220
0
230
1
50
0
73
1
44
1
0
LWPOLYLINE
5
CD
100
AcDbEntity
8
0
6
ByLayer
62
256
370
-1
100
AcDbPolyline
90
4
70
1
43
0
10
-17
20
21
10
22
20
21
10
22
20
-11
10
-17
20
-11
0
MTEXT
5
CE
100
AcDbEntity
8
0
6
ByLayer
62
256
370
-1
100
AcDbMText
10
6.5694417622
20
-4.61552889295
30
0
40
0.602544787747
41
15.9339620979
71
1
72
5
1
Benchtop Plate Heat Exchanger (bPHE)
7
standard 360
210
0
220
0
230
1
50
0
73
1
44
1
0
LWPOLYLINE
5
CF
100
AcDbEntity
8
0
6
ByLayer
62
256
370
-1
100
AcDbPolyline
90
4
70
1
43
0
10
22
20
-11
10
6
20
-11
10
6
20
-6
10
22
20
-6
0
LWPOLYLINE
5
D0
100
AcDbEntity
8
0
6
ByLayer
62
256
370
-1
100
AcDbPolyline
90
4
70
1
43
0
10
6
20
-6
10
22
20
-6
10
22
20
-4
10
6
20
-4
0
LWPOLYLINE
5
D1
100
AcDbEntity
8
0
6
ByLayer
62
251
420
6710886
370
-1
100
AcDbPolyline
90
2
70
0
43
0
10
16.4780879347
20
-6
10
16.4780879347
20
-11
0
LWPOLYLINE
5
D2
100
AcDbEntity
8
0
6
ByLayer
62
251
420
6710886
370
-1
100
AcDbPolyline
90
2
70
0
43
0
10
11.4649153007
20
-11
10
11.4649153007
20
-6
0
LWPOLYLINE
5
D3
100
AcDbEntity
8
0
6
ByLayer
62
251
420
6710886
370
-1
100
AcDbPolyline
90
2
70
0
43
0
10
11.4649153007
20
-7.39667173345
10
22
20
-7.39667173345
0
LWPOLYLINE
5
D4
100
AcDbEntity
8
0
6
ByLayer
62
251
420
6710886
370
-1
100
AcDbPolyline
90
2
70
0
43
0
10
11.4649153007
20
-7.97511472968
10
22
20
-7.97511472968
0
LWPOLYLINE
5
D5
100
AcDbEntity
8
0
6
ByLayer
62
251
420
6710886
370
-1
100
AcDbPolyline
90
2
70
0
43
0
10
11.4649153007
20
-9.24768932141
10
22
20
-9.24768932141
0
LWPOLYLINE
5
D6
100
AcDbEntity
8
PTFE_B-02b
6
ByLayer
62
253
420
10066329
370
-1
100
AcDbPolyline
90
4
70
1
43
0
10
-1
20
-3.999975
10
1
20
-3.999975
10
1
20
-5.999975
10
-1
20
-5.999975
0
LWPOLYLINE
5
D7
100
AcDbEntity
8
PTFE_B-02b
6
CONTINUOUS
62
251
420
6710886
370
-1
100
AcDbPolyline
90
4
70
1
43
0
10
-14.3096875
20
-4.057475
10
-12.7221875
20
-4.057475
10
-12.7221875
20
-4.692475
10
-14.3096875
20
-4.692475
0
LWPOLYLINE
5
D8
100
AcDbEntity
8
PTFE_B-02b
6
CONTINUOUS
62
251
420
6710886
370
-1
100
AcDbPolyline
90
4
70
1
43
0
10
-14.3096875
20
-5.307475
10
-12.7221875
20
-5.307475
10
-12.7221875
20
-5.942475
10
-14.3096875
20
-5.942475
0
CIRCLE
5
D9
100
AcDbEntity
8
PTFE_B-02a
6
CONTINUOUS
62
251
420
6710886
370
-1
100
AcDbCircle
10
-0.625
20
-4.374975
40
0.3175
0
CIRCLE
5
DA
100
AcDbEntity
8
PTFE_B-02a
6
CONTINUOUS
62
251
420
6710886
370
-1
100
AcDbCircle
10
0.625
20
-5.624975
40
0.3175
0
DIMENSION
5
DB
100
AcDbEntity
8
Measurements
6
ByLayer
62
3
370
-1
100
AcDbDimension
2
*D3
10
12.9720303752
20
0.375721966244
30
0
11
12.9466303752
21
0.375721966244
31
0
70
33
71
5
3
Standard 360
53
0
210
0
220
0
230
1
100
AcDbAlignedDimension
13
12.9212303752
23
0.94769638404
33
0
14
12.9720303752
24
0.94769638404
34
0
0
DIMENSION
5
DC
100
AcDbEntity
8
Measurements
6
ByLayer
62
3
370
-1
100
AcDbDimension
2
*D4
10
13.2728231433
20
15.4205297602
30
0
11
12.9528231433
21
15.4205297602
31
0
70
33
71
5
3
Standard 360
53
0
210
0
220
0
230
1
100
AcDbAlignedDimension
13
12.6328231433
23
15.052303616
33
0
14
13.2728231433
24
15.052303616
34
0
0
MTEXT
5
DD
100
AcDbEntity
8
0
6
ByLayer
62
256
370
-1
100
AcDbMText
10
16.8749926091
20
-6.83998406493
30
0
40
0.385628664158
41
5.96653278376
71
1
72
5
1
{\C7;Matthew Rothfuss\P(785)-263-6008\P02/25/2015\P03/03/2015}
7
standard 360
210
0
220
0
230
1
50
0
73
1
44
1
0
MTEXT
5
DE
100
AcDbEntity
8
0
6
ByLayer
62
256
370
-1
100
AcDbMText
10
11.1932706535
20
-6.84314112875
30
0
40
0.385628664158
41
5.24883479381
71
3
72
5
1
{\C7;Created By:\PCell #:\PDate Made:\PDate Last Modified:}
7
standard 360
210
0
220
0
230
1
50
0
73
1
44
1
0
LWPOLYLINE
5
DF
100
AcDbEntity
8
0
6
ByLayer
62
251
370
-1
100
AcDbPolyline
90
2
70
0
43
0
10
11.4649153007
20
-8.61189747053
10
22
20
-8.61189747053
0
LINE
5
E0
100
AcDbEntity
8
PTFE_B-01a
6
ByLayer
62
256
370
-1
100
AcDbLine
10
-14
20
13
11
-14
21
16
0
LINE
5
E1
100
AcDbEntity
8
PTFE_B-01a
6
ByLayer
62
256
370
-1
100
AcDbLine
10
-11
20
13
11
-11
21
16
0
LINE
5
E2
100
AcDbEntity
8
PTFE_B-01a
6
ByLayer
62
256
370
-1
100
AcDbLine
10
-14
20
16
11
-11
21
16
0
LINE
5
E3
100
AcDbEntity
8
PTFE_B-01a
6
ByLayer
62
256
370
-1
100
AcDbLine
10
-14
20
13
11
-11
21
13
0
CIRCLE
5
E4
100
AcDbEntity
8
PTFE_B-01a
6
ByLayer
62
256
370
-1
100
AcDbCircle
10
-12.7
20
14.7
40
0.125
0
CIRCLE
5
E5
100
AcDbEntity
8
PTFE_B-01a
6
ByLayer
62
256
370
-1
100
AcDbCircle
10
-12.3
20
14.3
40
0.125
0
CIRCLE
5
E6
100
AcDbEntity
8
PTFE_B-01a
6
ByLayer
62
256
370
-1
100
AcDbCircle
10
-11.6
20
15.4
40
0.125
0
CIRCLE
5
E7
100
AcDbEntity
8
PTFE_B-01a
6
ByLayer
62
256
370
-1
100
AcDbCircle
10
-11.6
20
13.6
40
0.125
0
CIRCLE
5
E8
100
AcDbEntity
8
PTFE_B-01a
6
ByLayer
62
256
370
-1
100
AcDbCircle
10
-13.4
20
13.6
40
0.125
0
CIRCLE
5
E9
100
AcDbEntity
8
PTFE_B-01a
6
ByLayer
62
256
370
-1
100
AcDbCircle
10
-13.4
20
15.4
40
0.125
0
LINE
5
EA
100
AcDbEntity
8
PTFE_B-01a
6
ByLayer
62
5
370
-1
100
AcDbLine
10
-12.71
20
16
11
-12.69
21
16
0
LINE
5
EB
100
AcDbEntity
8
PTFE_B-01a
6
ByLayer
62
5
370
-1
100
AcDbLine
10
-12.31
20
13
11
-12.29
21
13
0
LINE
5
EC
100
AcDbEntity
8
PTFE_B-01a
6
ByLayer
62
5
370
-1
100
AcDbLine
10
-12.29
20
13
11
-12.29
21
14.1754006421
0
LINE
5
ED
100
AcDbEntity
8
PTFE_B-01a
6
ByLayer
62
5
370
-1
100
AcDbLine
10
-12.31
20
13
11
-12.31
21
14.1754006421
0
LINE
5
EE
100
AcDbEntity
8
PTFE_B-01a
6
ByLayer
62
5
370
-1
100
AcDbLine
10
-12.69
20
16
11
-12.69
21
14.8245993579
0
LINE
5
EF
100
AcDbEntity
8
PTFE_B-01a
6
ByLayer
62
5
370
-1
100
AcDbLine
10
-12.71
20
16
11
-12.71
21
14.8245993579
0
LINE
5
F0
100
AcDbEntity
8
Gasket_B-01a
6
ByLayer
62
256
370
-1
100
AcDbLine
10
-13.1
20
8.3
11
-13.1
21
9.1
0
LINE
5
F1
100
AcDbEntity
8
Gasket_B-01a
6
ByLayer
62
256
370
-1
100
AcDbLine
10
-13.1
20
8.3
11
-12.3
21
8.3
0
LINE
5
F2
100
AcDbEntity
8
Gasket_B-01a
6
ByLayer
62
256
370
-1
100
AcDbLine
10
-13.1
20
9.1
11
-12.3
21
9.1
0
LINE
5
F3
100
AcDbEntity
8
Gasket_B-01a
6
ByLayer
62
256
370
-1
100
AcDbLine
10
-12.3
20
8.3
11
-12.3
21
9.1
0
LINE
5
F4
100
AcDbEntity
8
Gasket_B-01a
6
ByLayer
62
256
370
-1
100
AcDbLine
10
-14
20
10
11
-11.4
21
10
0
LINE
5
F5
100
AcDbEntity
8
Gasket_B-01a
6
ByLayer
62
256
370
-1
100
AcDbLine
10
-11.4
20
7.4
11
-11.4
21
10
0
LINE
5
F6
100
AcDbEntity
8
Gasket_B-01a
6
ByLayer
62
256
370
-1
100
AcDbLine
10
-14
20
7.4
11
-14
21
10
0
LINE
5
F7
100
AcDbEntity
8
Gasket_B-01a
6
ByLayer
62
256
370
-1
100
AcDbLine
10
-14
20
7.4
11
-11.4
21
7.4
0
CIRCLE
5
F8
100
AcDbEntity
8
Gasket_B-01a
6
ByLayer
62
256
370
-1
100
AcDbCircle
10
-11.8
20
9.6
40
0.125
0
CIRCLE
5
F9
100
AcDbEntity
8
Gasket_B-01a
6
ByLayer
62
256
370
-1
100
AcDbCircle
10
-11.8
20
7.8
40
0.125
0
CIRCLE
5
FA
100
AcDbEntity
8
Gasket_B-01a
6
ByLayer
62
256
370
-1
100
AcDbCircle
10
-13.6
20
7.8
40
0.125
0
CIRCLE
5
FB
100
AcDbEntity
8
Gasket_B-01a
6
ByLayer
62
256
370
-1
100
AcDbCircle
10
-13.6
20
9.6
40
0.125
0
LINE
5
FC
100
AcDbEntity
8
PTFE_B-01b
6
ByLayer
62
256
370
-1
100
AcDbLine
10
-10
20
13
11
-10
21
16
0
LINE
5
FD
100
AcDbEntity
8
PTFE_B-01b
6
ByLayer
62
256
370
-1
100
AcDbLine
10
-9
20
13
11
-9
21
16
0
LINE
5
FE
100
AcDbEntity
8
PTFE_B-01b
6
ByLayer
62
256
370
-1
100
AcDbLine
10
-10
20
16
11
-9
21
16
0
LINE
5
FF
100
AcDbEntity
8
PTFE_B-01b
6
ByLayer
62
256
370
-1
100
AcDbLine
10
-10
20
13
11
-9
21
13
0
ENDSEC
0
SECTION
2
OBJECTS
0
DICTIONARY
5
C
330
0
100
AcDbDictionary
281
1
3
ACAD_GROUP
350
D
0
DICTIONARY
5
D
330
C
100
AcDbDictionary
281
1
0
ENDSEC
0
EOF
